<svg width="80" height="80" viewBox="0 0 80 80" fill="none" xmlns="http://www.w3.org/2000/svg">
<path fill-rule="evenodd" clip-rule="evenodd" d="M28.491 0.431777C27.9715 0.709542 22.1527 3.90683 15.5603 7.53682C8.96806 11.167 3.36887 14.1866 3.1179 14.2471C1.79839 14.5647 0.540323 15.691 0.187258 16.8706C0.0604839 17.2938 0 19.3316 0 23.1737V28.8516L0.395968 29.2477C0.788548 29.6407 0.816774 29.6439 3.87097 29.6439C6.92516 29.6439 6.95339 29.6407 7.34597 29.2477C7.72742 28.8662 7.74194 28.7714 7.74194 26.6653V24.4792H15.4839H23.2258L23.2256 44.9364L23.2255 65.3935L20.6452 69.2671L18.0648 73.1406L18.0647 76.1741C18.0645 79.1798 18.0682 79.2113 18.4605 79.6038L18.8563 80H29.6774H40.4985L40.8944 79.6038C41.2866 79.2113 41.2903 79.1798 41.2902 76.1741L41.29 73.1406L38.7097 69.2671L36.1294 65.3935L36.1292 44.9364L36.129 24.4792H47.7419H59.3548V27.0433V29.6075L58.231 29.6711C57.03 29.739 56.5289 29.989 55.8971 30.8359C55.5987 31.2358 55.5645 31.511 55.5645 33.5175C55.5645 35.524 55.5987 35.7992 55.8971 36.1991C56.665 37.2283 56.9064 37.3058 59.5273 37.3623L61.9355 37.4143L61.9334 38.9763L61.9313 40.5383L54.5819 44.8153C50.5398 47.1677 47.0569 49.2657 46.8421 49.4774L46.4516 49.8627V58.0793V66.2959L46.8476 66.692L47.2434 67.0882H63.2258H79.2082L79.604 66.692L80 66.2959V58.0793V49.8627L79.6132 49.4774C79.4006 49.2657 75.9185 47.1677 71.8755 44.8153L64.5244 40.5383L64.5203 38.9763L64.5161 37.4143L66.9244 37.3623C69.5452 37.3058 69.7866 37.2283 70.5545 36.1991C70.8529 35.7992 70.8871 35.524 70.8871 33.5175C70.8871 31.511 70.8529 31.2358 70.5545 30.8359C69.9227 29.989 69.4216 29.739 68.2206 29.6711L67.0968 29.6075V27.0433V24.4792H73.1524H79.2082L79.604 24.083C79.8623 23.8246 80 23.5042 80 23.1614C80 22.6895 79.5755 22.2106 75.8468 18.476L71.6935 14.3162L51.0484 7.21338C39.6935 3.30691 30.1855 0.0692775 29.9194 0.01876C29.5637 -0.0487042 29.1853 0.0605621 28.491 0.431777ZM48.4913 9.07898L63.031 14.0691L60.0235 14.1118L57.0161 14.1544L46.295 10.3645C39.0626 7.80781 35.4935 6.47144 35.3273 6.25775C35.1916 6.0836 34.7203 5.48643 34.2798 4.93074C33.8394 4.37504 33.5853 3.95848 33.7153 4.0048C33.8453 4.05112 40.4945 6.33441 48.4913 9.07898ZM28.3871 9.54994V14.1498H27.0968H25.8064V11.1465V8.14303L27.0564 6.55423C27.7439 5.68043 28.3247 4.96205 28.3468 4.95785C28.3689 4.95349 28.3871 7.02003 28.3871 9.54994ZM33.5484 11.1454V14.1498H32.2581H30.9677V9.52928V4.90879L32.2581 6.52486L33.5484 8.14077V11.1454ZM23.8847 6.42383L23.2258 7.2518V10.7009V14.1498L16.0887 14.1449C11.9079 14.142 9.05177 14.0812 9.19355 13.9981C9.85677 13.6092 24.4429 5.59779 24.4895 5.59682C24.5192 5.59618 24.2471 5.96836 23.8847 6.42383ZM48.871 14.0294C49.004 14.0817 46.1914 14.1301 42.621 14.137L36.129 14.1498V11.8324V9.51491L42.379 11.7248C45.8166 12.9401 48.7379 13.9772 48.871 14.0294ZM9.03226 19.3145V21.8969H7.49274C6.07306 21.8969 5.92226 21.9277 5.55726 22.2931C5.17581 22.6746 5.16129 22.7694 5.16129 24.8755V27.0616H3.87097H2.58065V22.2931V17.5244L2.97661 17.1284C3.36677 16.7378 3.41274 16.7321 6.20242 16.7321H9.03226V19.3145ZM13.871 16.8199C13.871 16.9206 11.7513 19.4759 11.6677 19.4759C11.6376 19.4759 11.6129 18.8585 11.6129 18.104V16.7321H12.7419C13.3629 16.7321 13.871 16.7717 13.871 16.8199ZM26.7742 16.8196C26.7742 16.9647 23.3487 21.0092 23.2258 21.0092C23.1029 21.0092 19.6774 16.9647 19.6774 16.8196C19.6774 16.7715 21.2742 16.7321 23.2258 16.7321C25.1774 16.7321 26.7742 16.7715 26.7742 16.8196ZM39.6774 16.8196C39.6774 16.9647 36.2519 21.0092 36.129 21.0092C36.0061 21.0092 32.5806 16.9647 32.5806 16.8196C32.5806 16.7715 34.1774 16.7321 36.129 16.7321C38.0806 16.7321 39.6774 16.7715 39.6774 16.8196ZM52.5806 16.8196C52.5806 16.9647 49.1552 21.0092 49.0323 21.0092C48.9094 21.0092 45.4839 16.9647 45.4839 16.8196C45.4839 16.7715 47.0806 16.7321 49.0323 16.7321C50.9839 16.7321 52.5806 16.7715 52.5806 16.8196ZM65.4839 16.8196C65.4839 16.9647 62.0584 21.0092 61.9355 21.0092C61.8126 21.0092 58.3871 16.9647 58.3871 16.8196C58.3871 16.7715 59.9839 16.7321 61.9355 16.7321C63.8871 16.7321 65.4839 16.7715 65.4839 16.8196ZM72.9839 19.3145L75.5608 21.8969H70.1863C67.2303 21.8969 64.836 21.836 64.8656 21.7616C64.8952 21.6872 65.8266 20.5293 66.9355 19.1886L68.9516 16.7507L69.6794 16.7415L70.4069 16.7321L72.9839 19.3145ZM18.6089 19.6709C19.5515 20.799 20.3226 21.7613 20.3226 21.8094C20.3226 21.8575 18.7198 21.8969 16.7608 21.8969C14.8018 21.8969 13.2231 21.8368 13.2527 21.7634C13.3661 21.4819 16.6987 17.5483 16.7944 17.583C16.8497 17.6034 17.6663 18.5429 18.6089 19.6709ZM31.5121 19.6709C32.4547 20.799 33.2258 21.7613 33.2258 21.8094C33.2258 21.8575 31.6231 21.8969 29.664 21.8969C27.705 21.8969 26.1263 21.8368 26.156 21.7634C26.2694 21.4819 29.6019 17.5483 29.6976 17.583C29.7529 17.6034 30.5695 18.5429 31.5121 19.6709ZM44.4153 19.6709C45.3579 20.799 46.129 21.7613 46.129 21.8094C46.129 21.8575 44.5263 21.8969 42.5673 21.8969C40.6082 21.8969 39.0295 21.8368 39.0592 21.7634C39.1726 21.4819 42.5052 17.5483 42.6008 17.583C42.6561 17.6034 43.4727 18.5429 44.4153 19.6709ZM57.3185 19.6709C58.2611 20.799 59.0323 21.7613 59.0323 21.8094C59.0323 21.8575 57.4295 21.8969 55.4705 21.8969C53.5114 21.8969 51.9327 21.8368 51.9624 21.7634C52.0758 21.4819 55.4084 17.5483 55.504 17.583C55.5594 17.6034 56.376 18.5429 57.3185 19.6709ZM26.4516 24.5349C26.4516 24.5656 26.3064 24.7221 26.129 24.8827C25.816 25.1663 25.8064 25.1647 25.8064 24.827C25.8064 24.5869 25.9063 24.4792 26.129 24.4792C26.3064 24.4792 26.4516 24.5042 26.4516 24.5349ZM33.5484 24.802C33.5484 24.9796 33.5234 25.1248 33.4927 25.1248C33.4621 25.1248 33.3056 24.9796 33.1452 24.802C32.8618 24.4887 32.8634 24.4792 33.2008 24.4792C33.4408 24.4792 33.5484 24.5791 33.5484 24.802ZM64.5161 27.0616V29.6439H63.2258H61.9355V27.0616V24.4792H63.2258H64.5161V27.0616ZM31.3719 26.7398L32.9798 28.3549L31.3287 30.0071L29.6774 31.6595L28.0261 30.0071L26.375 28.3549L27.9829 26.7398C28.8673 25.8516 29.6297 25.1248 29.6774 25.1248C29.7252 25.1248 30.4876 25.8516 31.3719 26.7398ZM26.8129 34.5246L25.8064 35.5317V33.5175V31.5032L26.8129 32.5104L27.8194 33.5175L26.8129 34.5246ZM33.5484 33.5562V35.5317L32.5437 34.5264L31.5389 33.5209L32.4982 32.5509C33.026 32.0173 33.4781 31.5807 33.5031 31.5807C33.5279 31.5807 33.5484 32.4697 33.5484 33.5562ZM68.3871 33.5175V34.8087H63.2258H58.0645V33.5175V32.2263H63.2258H68.3871V33.5175ZM31.3719 37.0692L32.9798 38.6843L31.3287 40.3365L29.6774 41.9889L28.0261 40.3365L26.375 38.6843L27.9829 37.0692C28.8673 36.181 29.6297 35.4543 29.6774 35.4543C29.7252 35.4543 30.4876 36.181 31.3719 37.0692ZM26.8129 44.8541L25.8064 45.8612V43.8469V41.8327L26.8129 42.8398L27.8194 43.8469L26.8129 44.8541ZM33.5484 43.8857V45.8612L32.5437 44.8558L31.5389 43.8503L32.4982 42.8803C33.026 42.3467 33.4781 41.9102 33.5031 41.9102C33.5279 41.9102 33.5484 42.7991 33.5484 43.8857ZM68.7048 45.9491L73.9418 49.0117H63.315C57.4702 49.0117 52.7374 48.9624 52.7976 48.9021C53.0798 48.6196 63.0134 42.8926 63.2258 42.8898C63.3589 42.8881 65.8244 44.2648 68.7048 45.9491ZM31.3719 47.3987L32.9798 49.0138L31.3287 50.666L29.6774 52.3184L28.0261 50.666L26.375 49.0138L27.9829 47.3987C28.8673 46.5105 29.6297 45.7837 29.6774 45.7837C29.7252 45.7837 30.4876 46.5105 31.3719 47.3987ZM77.4193 56.1132V60.6323H76.129H74.8387V56.7587V52.8852H73.5484H72.2581V56.7587V60.6323H70.9677H69.6774V56.7587V52.8852H68.3871H67.0968V56.7587V60.6323H65.8064H64.5161V56.7587V52.8852H63.2258H61.9355V56.7587V60.6323H60.6452H59.3548V56.7587V52.8852H58.0645H56.7742V56.7587V60.6323H55.4839H54.1935V56.7587V52.8852H52.9032H51.6129V56.7587V60.6323H50.3226H49.0323V56.1132V51.594H63.2258H77.4193V56.1132ZM26.8129 55.1835L25.8064 56.1906V54.1764V52.1621L26.8129 53.1693L27.8194 54.1764L26.8129 55.1835ZM33.5484 54.2151V56.1906L32.5437 55.1853L31.5389 54.1798L32.4982 53.2098C33.026 52.6762 33.4781 52.2396 33.5031 52.2396C33.5279 52.2396 33.5484 53.1286 33.5484 54.2151ZM30.7258 57.0815L31.6834 58.0499H29.6774H27.6715L28.629 57.0815C29.1558 56.5489 29.6276 56.1132 29.6774 56.1132C29.7273 56.1132 30.199 56.5489 30.7258 57.0815ZM33.5484 62.5691V64.5058H29.6774H25.8064V62.5691V60.6323H29.6774H33.5484V62.5691ZM77.4193 63.8602V64.5058H63.2258H49.0323V63.8602V63.2146H63.2258H77.4193V63.8602ZM35.8623 69.6706L37.5818 72.2529H29.6774H21.7731L23.4926 69.6706L25.2121 67.0882H29.6774H34.1427L35.8623 69.6706ZM38.7097 76.1265V77.4176H29.6774H20.6452V76.1265V74.8353H29.6774H38.7097V76.1265Z" fill="#9EDAF0"/>
</svg>
