<svg width="83" height="83" viewBox="0 0 83 83" fill="none" xmlns="http://www.w3.org/2000/svg">
<path fill-rule="evenodd" clip-rule="evenodd" d="M0.8238 0.247205C0.0644131 0.667445 0.00648544 0.991579 0.000319484 4.85056C-0.00584648 8.77469 0.06993 9.18148 0.874913 9.54791L1.29274 9.73802V45.7129C1.29274 73.2591 1.33817 81.787 1.48664 82.1125C1.91745 83.0572 -0.246483 82.9993 34.703 82.9993C58.9722 82.9993 66.9338 82.9526 67.25 82.8089C67.7853 82.5651 68.73 81.0663 69.062 79.9338C69.3985 78.7857 69.2848 76.9189 68.8016 75.6601C68.1013 73.8355 66.0503 72.1246 64.0882 71.7283L63.1957 71.5481L63.1527 66.9013C63.1291 64.3457 63.1464 62.2547 63.1915 62.2547C63.2365 62.2547 63.8399 62.4178 64.5326 62.6169C66.3138 63.1294 70.0455 63.1211 71.9579 62.6007C77.094 61.2027 81.2369 57.037 82.6174 51.8824C83.1266 49.9812 83.1277 46.4169 82.6198 44.5573C81.6461 40.992 79.419 37.8533 76.4746 35.8965C75.7307 35.402 75.122 34.9767 75.122 34.9513C75.122 34.9258 75.2419 34.6226 75.3885 34.2774C76.3557 31.9994 76.6671 28.5175 76.1334 25.9501C74.9536 20.2759 70.8519 15.9437 65.2132 14.4159C63.3074 13.8996 59.7629 13.9023 57.8411 14.4216C56.3588 14.8221 54.1474 15.8343 53.0625 16.6088C52.6563 16.8986 52.233 17.191 52.1214 17.2586C51.9614 17.3553 51.9185 16.576 51.9185 13.5673V9.75325L52.3737 9.51825C53.1462 9.11924 53.2166 8.73223 53.2166 4.88297C53.2166 1.04101 53.1454 0.646376 52.3818 0.251905C51.7376 -0.0808185 1.42466 -0.0855184 0.8238 0.247205ZM49.9714 4.87876V6.49522L41.5196 6.53995L33.0679 6.58468L32.6763 7.03944C32.1453 7.6561 32.1453 8.59253 32.6763 9.20919L33.0679 9.66395L40.8706 9.70901L48.6733 9.75406V39.1302V68.5061L47.8558 69.1158C47.4062 69.451 46.6942 70.168 46.2738 70.7091L45.5092 71.6929L45.428 67.3384C45.3834 64.9436 45.2833 62.8537 45.2056 62.6944C44.8721 62.0115 44.3462 61.9306 40.2356 61.9306C35.987 61.9306 35.6113 61.9972 35.2372 62.8174C34.9644 63.4151 34.9644 72.7632 35.2372 73.3609C35.581 74.1146 36.0999 74.2477 38.6971 74.2477H41.069L40.7576 74.6934C40.1094 75.6209 39.83 76.6951 39.83 78.2588V79.758H22.184H4.53798V44.7515V9.74498H12.1617H19.7854L20.3116 9.27531C20.7472 8.88668 20.838 8.68831 20.838 8.12431C20.838 7.56032 20.7472 7.36195 20.3116 6.97331L19.7854 6.50364H11.5127H3.23988V4.88297V3.2623H26.6056H49.9714V4.87876ZM25.8522 6.66441C24.9665 7.02145 24.6879 8.41166 25.3484 9.17872C25.5915 9.46104 25.9366 9.63283 26.3801 9.69215C26.9581 9.76962 27.1189 9.71679 27.593 9.29363C28.0496 8.88619 28.1398 8.69349 28.1398 8.12431C28.1398 6.95176 26.9783 6.21046 25.8522 6.66441ZM8.61238 15.4815C7.82557 15.917 7.79507 16.1351 7.7889 21.3814C7.78274 26.7118 7.82411 26.9933 8.67112 27.3787C9.33023 27.6787 16.742 27.6468 17.3332 27.3414C18.1263 26.9317 18.168 26.6356 18.168 21.4138C18.168 16.192 18.1263 15.8959 17.3332 15.4862C16.7089 15.1639 9.19361 15.1596 8.61238 15.4815ZM22.2424 15.4815C21.4556 15.917 21.4251 16.1351 21.4189 21.3814C21.4128 26.7118 21.4541 26.9933 22.3011 27.3787C22.9602 27.6787 30.3721 27.6468 30.9632 27.3414C31.7563 26.9317 31.798 26.6356 31.798 21.4138C31.798 16.192 31.7563 15.8959 30.9632 15.4862C30.339 15.1639 22.8236 15.1596 22.2424 15.4815ZM35.8724 15.4815C35.0856 15.917 35.0551 16.1351 35.0489 21.3814C35.0428 26.7118 35.0842 26.9933 35.9312 27.3787C36.5903 27.6787 44.0021 27.6468 44.5932 27.3414C45.3863 26.9317 45.428 26.6356 45.428 21.4138C45.428 16.192 45.3863 15.8959 44.5932 15.4862C43.969 15.1639 36.4536 15.1596 35.8724 15.4815ZM64.9806 17.7501C68.1723 18.7831 70.5256 20.8104 71.9613 23.7638C73.6195 27.1745 73.5531 31.0892 71.7819 34.3442C70.8217 36.1088 71.0771 36.7167 73.2167 37.7599C75.7096 38.9756 77.4854 40.7922 78.7041 43.3739C80.269 46.688 80.1607 50.3392 78.3969 53.7462C77.5902 55.3045 75.3049 57.5875 73.7428 58.3959C71.7054 59.4501 70.462 59.7435 68.0636 59.7362C66.1481 59.7304 65.8275 59.6853 64.575 59.2463L63.1957 58.7628L63.1511 56.0198L63.1065 53.2767L66.9841 49.3788C69.4454 46.9044 70.899 45.3221 70.9639 45.0463C71.1914 44.0789 70.4086 43.1308 69.3825 43.1308C68.7615 43.1308 68.6215 43.2428 66.0402 45.8049C64.5583 47.2757 63.2939 48.479 63.2303 48.479C63.1667 48.479 63.1146 44.9028 63.1146 40.5321C63.1146 31.7263 63.1448 31.9817 62.0606 31.6242C61.6338 31.4835 61.3959 31.4978 60.9322 31.6913C59.9526 32.1 59.8694 32.5086 59.8694 36.9095V40.7468L58.9867 39.913C58.2265 39.1948 58.0137 39.0791 57.4543 39.0791C56.5594 39.0791 55.984 39.5932 55.862 40.5019L55.7688 41.1949L57.8192 43.2645L59.8694 45.3341V52.0207V58.7074L59.1798 59.0097C57.5336 59.7312 54.9532 59.994 52.946 59.645L51.9185 59.4664V40.8536V22.241L52.7023 21.3007C53.8944 19.8706 55.7346 18.5658 57.4354 17.9446C59.7965 17.0824 62.6874 17.008 64.9806 17.7501ZM14.9228 21.4138V24.331H12.9756H11.0285V21.4138V18.4966H12.9756H14.9228V21.4138ZM28.5528 21.4138V24.331H26.6056H24.6585V21.4138V18.4966H26.6056H28.5528V21.4138ZM42.1828 21.4138V24.331H40.2356H38.2885V21.4138V18.4966H40.2356H42.1828V21.4138ZM8.61238 31.04C7.82557 31.4754 7.79507 31.6936 7.7889 36.9398C7.78274 42.2702 7.82411 42.5517 8.67112 42.9371C9.33023 43.2371 16.742 43.2052 17.3332 42.8999C18.1263 42.4902 18.168 42.1941 18.168 36.9723C18.168 31.7505 18.1263 31.4544 17.3332 31.0447C16.7089 30.7223 9.19361 30.7181 8.61238 31.04ZM22.2424 31.04C21.4556 31.4754 21.4251 31.6936 21.4189 36.9398C21.4128 42.2702 21.4541 42.5517 22.3011 42.9371C22.9602 43.2371 30.3721 43.2052 30.9632 42.8999C31.7563 42.4902 31.798 42.1941 31.798 36.9723C31.798 31.7505 31.7563 31.4544 30.9632 31.0447C30.339 30.7223 22.8236 30.7181 22.2424 31.04ZM35.8724 31.04C35.0856 31.4754 35.0551 31.6936 35.0489 36.9398C35.0428 42.2702 35.0842 42.5517 35.9312 42.9371C36.5903 43.2371 44.0021 43.2052 44.5932 42.8999C45.3863 42.4902 45.428 42.1941 45.428 36.9723C45.428 31.7505 45.3863 31.4544 44.5932 31.0447C43.969 30.7223 36.4536 30.7181 35.8724 31.04ZM14.9228 36.9723V39.8895H12.9756H11.0285V36.9723V34.055H12.9756H14.9228V36.9723ZM28.5528 36.9723V39.8895H26.6056H24.6585V36.9723V34.055H26.6056H28.5528V36.9723ZM42.1828 36.9723V39.8895H40.2356H38.2885V36.9723V34.055H40.2356H42.1828V36.9723ZM8.61238 46.5984C7.82557 47.0339 7.79507 47.252 7.7889 52.4983C7.78274 57.8287 7.82411 58.1102 8.67112 58.4956C9.33023 58.7956 16.742 58.7636 17.3332 58.4583C18.1263 58.0486 18.168 57.7525 18.168 52.5307C18.168 47.3089 18.1263 47.0128 17.3332 46.6031C16.7089 46.2807 9.19361 46.2765 8.61238 46.5984ZM22.2424 46.5984C21.4556 47.0339 21.4251 47.252 21.4189 52.4983C21.4128 57.8287 21.4541 58.1102 22.3011 58.4956C22.9602 58.7956 30.3721 58.7636 30.9632 58.4583C31.7563 58.0486 31.798 57.7525 31.798 52.5307C31.798 47.3089 31.7563 47.0128 30.9632 46.6031C30.339 46.2807 22.8236 46.2765 22.2424 46.5984ZM35.8724 46.5984C35.0856 47.0339 35.0551 47.252 35.0489 52.4983C35.0428 57.8287 35.0842 58.1102 35.9312 58.4956C36.5903 58.7956 44.0021 58.7636 44.5932 58.4583C45.3863 58.0486 45.428 57.7525 45.428 52.5307C45.428 47.3089 45.3863 47.0128 44.5932 46.6031C43.969 46.2807 36.4536 46.2765 35.8724 46.5984ZM14.9228 52.5307V55.4479H12.9756H11.0285V52.5307V49.6135H12.9756H14.9228V52.5307ZM28.5528 52.5307V55.4479H26.6056H24.6585V52.5307V49.6135H26.6056H28.5528V52.5307ZM42.1828 52.5307V55.4479H40.2356H38.2885V52.5307V49.6135H40.2356H42.1828V52.5307ZM8.61238 62.1568C7.82557 62.5923 7.79507 62.8104 7.7889 68.0567C7.78274 73.3871 7.82411 73.6686 8.67112 74.054C9.33023 74.354 16.742 74.3221 17.3332 74.0167C18.1263 73.607 18.168 73.3109 18.168 68.0891C18.168 62.8673 18.1263 62.5712 17.3332 62.1615C16.7089 61.8392 9.19361 61.835 8.61238 62.1568ZM22.2424 62.1568C21.4556 62.5923 21.4251 62.8104 21.4189 68.0567C21.4128 73.3871 21.4541 73.6686 22.3011 74.054C22.9602 74.354 30.3721 74.3221 30.9632 74.0167C31.7563 73.607 31.798 73.3109 31.798 68.0891C31.798 62.8673 31.7563 62.5712 30.9632 62.1615C30.339 61.8392 22.8236 61.835 22.2424 62.1568ZM59.8694 66.1594V70.0639L59.0855 69.3599C57.5359 67.9686 55.6434 67.2838 53.3383 67.2807L51.9185 67.2788V65.0139V62.749L52.4459 62.8665C52.736 62.9312 53.959 62.9756 55.1638 62.9651C56.8218 62.9508 57.6305 62.8675 58.4901 62.6225C59.1149 62.4443 59.6807 62.2888 59.7477 62.2768C59.8147 62.2646 59.8694 64.0118 59.8694 66.1594ZM14.9228 68.0891V71.0063H12.9756H11.0285V68.0891V65.1719H12.9756H14.9228V68.0891ZM28.5528 68.0891V71.0063H26.6056H24.6585V68.0891V65.1719H26.6056H28.5528V68.0891ZM42.1828 68.0891V71.0063H40.2356H38.2885V68.0891V65.1719H40.2356H42.1828V68.0891ZM55.3932 70.853C56.6929 71.3387 57.8057 72.4131 58.4807 73.8338C59.268 75.4907 59.759 75.6633 61.7067 74.9673C64.2005 74.0762 66.7459 76.7012 65.8572 79.2476L65.679 79.758H54.5115H43.3438L43.1491 79.1684C42.4818 77.1495 43.9972 75.0261 46.2695 74.7958C47.4753 74.6734 47.8344 74.4533 48.2886 73.5583C48.9555 72.2437 50.3165 71.1107 51.7563 70.6717C52.5952 70.4159 54.4743 70.5096 55.3932 70.853Z" fill="#9EDAF0"/>
</svg>
