<svg width="76" height="85" viewBox="0 0 76 85" fill="none" xmlns="http://www.w3.org/2000/svg">
<path fill-rule="evenodd" clip-rule="evenodd" d="M9.72162 0.324228C8.91905 0.811484 8.67147 1.4372 8.67147 2.97882V4.31524H7.40458C5.04937 4.31524 4.33848 4.99823 4.33748 7.26201L4.33682 8.63164H3.13912C2.27336 8.63164 1.7462 8.72577 1.23737 8.97098C-0.11537 9.62309 0.00216524 6.01391 0.00283211 46.9233C0.00333226 82.8299 0.00866711 83.4302 0.328931 83.953C1.01814 85.0789 -1.10334 84.9988 28.0107 84.9988C57.1247 84.9988 55.0032 85.0789 55.6924 83.953C55.9457 83.5396 56.018 83.1175 56.0185 82.052L56.0192 80.6824H57.2861C59.6148 80.6824 60.3539 79.9728 60.3539 77.7367V76.4076L61.733 76.3356C62.6836 76.2858 63.2784 76.1656 63.6475 75.9484C64.631 75.3699 64.6885 75.0516 64.6885 70.1792C64.6885 65.9858 64.6728 65.7659 64.3429 65.3483C63.8966 64.7832 63.0205 64.7475 62.5277 65.2743C62.2046 65.6196 62.1878 65.8407 62.1878 69.7567V73.8757H61.2708H60.3539V65.9257V57.9756L61.269 56.4214L62.1841 54.867L62.1859 57.7382C62.1878 60.5643 62.1943 60.6161 62.597 61.017C63.1185 61.5365 63.7577 61.5365 64.2792 61.017L64.6885 60.6096V55.5742V50.5388L69.4641 42.327C72.0909 37.8104 74.386 33.7898 74.5645 33.3925C74.7796 32.9134 74.8553 32.4906 74.7888 32.1379C74.7099 31.7196 74.8313 31.3313 75.3569 30.3199C76.4944 28.1308 76.2699 27.6124 73.4859 26.0025C70.695 24.3887 69.9349 24.4889 68.6214 26.6443C68.2258 27.2934 67.7748 27.833 67.5997 27.8667C66.965 27.989 66.5568 28.4248 65.6745 29.9213L64.7719 31.4528L64.6885 16.4314C64.622 4.44988 64.5608 1.33261 64.3861 1.02747C64.2657 0.817294 63.9281 0.500039 63.6359 0.322568C63.1159 0.00680666 62.5517 0 36.68 0C10.7651 0 10.2449 0.00630861 9.72162 0.324228ZM62.1878 19.1937V35.8984L61.3125 37.4086L60.4372 38.9188L60.3539 22.3226C60.2752 6.66386 60.2535 5.70147 59.9689 5.28411C59.267 4.25448 60.4266 4.30677 39.377 4.35475C20.7955 4.39692 20.1991 4.40788 19.859 4.71451C19.4011 5.12722 19.3922 6.02603 19.8415 6.47344C20.171 6.80149 20.3972 6.80547 39.014 6.80547H57.8531V25.0685V43.3315L56.9778 44.8645L56.1026 46.3975L56.0192 35.0736C55.9424 24.6247 55.9135 23.7236 55.6458 23.4123C55.2115 22.9075 54.3015 22.9586 53.8641 23.5124C53.521 23.9467 53.5185 24.0445 53.5185 37.3797V50.8095L50.4857 56.034L47.4529 61.2585H28.3013C15.1206 61.2585 9.04675 61.3135 8.81918 61.4347C8.01961 61.8609 8.09479 63.1775 8.94072 63.5612C9.23981 63.697 14.415 63.7488 27.6808 63.7488H46.0075L45.5045 64.5983C44.6809 65.9893 44.5055 66.9698 44.6274 69.5017L44.7341 71.7175H37.7061C30.9004 71.7175 30.6677 71.728 30.3447 72.0496C29.8954 72.497 29.9043 73.3958 30.3622 73.8085C30.6972 74.1103 31.082 74.1247 38.8231 74.1247H46.9331L49.3408 72.8796C50.9902 72.0268 52.0273 71.37 52.6335 70.795L53.5185 69.9556V76.232V82.5085H28.0107H2.50293V46.8152V11.1219H28.0107H53.5185V14.9178C53.5185 18.5067 53.5373 18.7377 53.8641 19.1512C54.3104 19.7163 55.1865 19.752 55.6793 19.2253C56.0034 18.8789 56.0192 18.6608 56.018 14.5353C56.0169 9.82446 55.9932 9.69547 55.0012 8.99605C54.6313 8.73524 52.8587 8.7115 30.7198 8.67099L6.83758 8.62716V7.7164V6.80547H11.0055C14.9512 6.80547 15.1913 6.78771 15.5069 6.47344C15.956 6.0262 15.9474 5.12739 15.4899 4.71451C15.1955 4.44872 14.823 4.38945 13.1558 4.3428L11.1722 4.28752V3.38821V2.48907H36.68H62.1878V19.1937ZM17.7576 18.2139C16.846 18.435 16.5139 19.5953 17.1741 20.2527C17.5008 20.5781 17.7297 20.5848 28.5652 20.5848H39.6227L39.9853 20.2006C40.6232 19.5244 40.3708 18.6165 39.448 18.267C38.9907 18.0939 18.4596 18.0436 17.7576 18.2139ZM8.97623 25.9188C8.12797 26.2301 8.02511 27.6221 8.81918 28.0453C9.04675 28.1667 15.2285 28.2215 28.6666 28.2215C47.9613 28.2215 48.1873 28.2176 48.5169 27.8894C48.9662 27.442 48.9574 26.5432 48.4994 26.1305C48.159 25.8237 47.5705 25.8134 28.7851 25.7849C16.4113 25.7659 9.26082 25.8144 8.97623 25.9188ZM72.2523 28.1662C72.8145 28.501 73.2963 28.7904 73.323 28.8093C73.3495 28.8283 73.2103 29.1155 73.0134 29.4478L72.6556 30.0518L71.7147 29.5254C70.3056 28.7369 70.3352 28.776 70.6468 28.1255C70.7964 27.8131 70.9889 27.5574 71.0745 27.5574C71.1601 27.5574 71.6901 27.8313 72.2523 28.1662ZM68.9451 30.8862C69.0754 31.096 67.5119 33.8647 67.2628 33.8655C67.1658 33.8658 66.9554 33.7707 66.7955 33.6543C66.5271 33.4588 66.5728 33.3259 67.3885 31.9273C68.1251 30.6641 68.3193 30.4371 68.555 30.5628C68.7106 30.6456 68.8861 30.7912 68.9451 30.8862ZM8.78734 31.8922C8.01777 32.338 8.11163 33.6342 8.94072 34.0104C9.24031 34.1464 14.6673 34.198 28.6629 34.198C47.9448 34.198 47.9724 34.1975 48.4111 33.8539C48.9852 33.4041 49.0099 32.579 48.4646 32.0687L48.0786 31.7078L28.5835 31.7128C15.2753 31.7163 8.99273 31.7732 8.78734 31.8922ZM71.8099 32.457L72.1698 32.708L71.3207 34.1587C70.8537 34.9564 70.4481 35.6379 70.4194 35.6731C70.3908 35.7083 70.1804 35.6151 69.9516 35.4659L69.536 35.1948L70.4049 33.7025C70.8829 32.8817 71.3134 32.2093 71.3617 32.208C71.4102 32.2068 71.6118 32.3189 71.8099 32.457ZM65.7748 35.9226C66.0771 36.1426 66.0394 36.2427 64.9494 38.1223C63.7289 40.2272 63.5885 40.8131 64.1667 41.3888C64.5293 41.7501 65.3967 41.813 65.7692 41.5052C65.8924 41.4034 66.5044 40.4342 67.1294 39.3516L68.2658 37.383L68.7196 37.6166L69.1732 37.8504L67.7453 40.2991C66.96 41.6458 65.9756 43.3455 65.5576 44.0759C65.1397 44.8064 64.776 45.4323 64.7495 45.4668C64.6999 45.5316 61.6613 43.8382 61.1193 43.4434C60.8328 43.2349 60.91 43.0561 62.3565 40.5772C63.2051 39.123 64.1927 37.4292 64.5513 36.8128C64.9099 36.1964 65.2607 35.6922 65.3309 35.6922C65.4011 35.6922 65.6008 35.7959 65.7748 35.9226ZM9.08243 37.6764C8.27285 38.0031 8.0141 39.0448 8.58611 39.6744C8.8872 40.0057 9.05959 40.0086 28.5367 40.0086C47.9613 40.0086 48.1873 40.0047 48.5169 39.6765C49.1515 39.0447 48.8779 38.0081 47.9954 37.7018C47.3627 37.4821 9.62459 37.4574 9.08243 37.6764ZM8.82368 43.7077C8.29936 44.1087 8.12547 44.6441 8.34687 45.1765C8.45891 45.4456 8.68531 45.7376 8.85002 45.8254C9.03691 45.925 16.453 45.9851 28.5607 45.9851C47.9459 45.9851 47.9724 45.9846 48.4111 45.641C49.0186 45.1652 49.0186 44.3148 48.4111 43.839C47.9723 43.4952 47.9503 43.4949 28.53 43.5002C13.5099 43.5042 9.02808 43.5515 8.82368 43.7077ZM61.8126 46.7656C62.6607 47.26 63.3548 47.7097 63.3548 47.7646C63.3548 47.8795 53.1977 65.4156 53.0018 65.6392C52.8608 65.7999 48.9736 63.6248 49.0796 63.4445C49.1154 63.3835 51.3745 59.4863 54.1 54.7839C56.8253 50.0816 59.1625 46.0648 59.2934 45.8578C59.5681 45.4238 59.4201 45.3705 61.8126 46.7656ZM8.58611 49.8056C8.16982 50.2637 8.19916 51.067 8.6483 51.5144L9.01424 51.8787H28.6135H48.213L48.5316 51.4867C48.9449 50.9787 48.9382 50.223 48.5169 49.8035C48.1873 49.4753 47.9613 49.4714 28.5367 49.4714C9.05959 49.4714 8.8872 49.4743 8.58611 49.8056ZM8.8917 55.4782C8.08996 55.8667 8.04495 57.1834 8.81918 57.5961C9.04675 57.7174 15.2198 57.7722 28.6375 57.7722H48.1253L48.4879 57.3881C48.9552 56.8927 48.9606 56.0968 48.4994 55.6813C48.159 55.3745 47.5676 55.364 28.7017 55.3336C15.2815 55.312 9.14245 55.3569 8.8917 55.4782ZM57.8531 70.3064V78.1921H56.9362H56.0192V71.8116V65.4312L56.8945 63.9282C57.3758 63.1015 57.7886 62.4241 57.8114 62.4228C57.8343 62.4216 57.8531 65.9692 57.8531 70.3064ZM49.8028 66.8896L51.6641 67.9553L51.4275 68.4107C51.2974 68.661 51.0007 69.0151 50.7679 69.1974C50.3855 69.4969 47.4833 71.0535 47.3072 71.0535C47.2669 71.0535 47.1844 70.188 47.1237 69.1302C47.0258 67.4229 47.0507 67.123 47.3456 66.4591C47.5283 66.0479 47.7372 65.7368 47.8097 65.7677C47.8824 65.7986 48.7793 66.3034 49.8028 66.8896ZM12.5341 67.3291C10.7111 67.8175 9.0961 69.3403 8.49608 71.1365C8.37421 71.5017 8.28035 72.3331 8.28769 72.984C8.34304 77.8632 14.2485 80.3465 17.8978 77.0252C19.1141 75.9182 19.7105 74.5956 19.7208 72.9822C19.7298 71.5754 19.4921 70.7704 18.7249 69.6105C18.0312 68.5616 16.7301 67.6639 15.4054 67.3204C14.2328 67.0163 13.6957 67.018 12.5341 67.3291ZM14.8862 69.7353C16.6254 70.2162 17.62 72.0492 17.0957 73.807C16.553 75.6267 14.323 76.5931 12.5738 75.7665C11.2428 75.1374 10.458 73.4575 10.8385 72.0509C11.0782 71.164 12.0535 70.115 12.9228 69.8088C13.735 69.5226 14.0718 69.51 14.8862 69.7353Z" fill="#9EDAF0"/>
</svg>
