<svg width="80" height="80" viewBox="0 0 80 80" fill="none" xmlns="http://www.w3.org/2000/svg">
<path fill-rule="evenodd" clip-rule="evenodd" d="M0.395968 0.395968L0 0.791774V40V79.2082L0.395968 79.604L0.791774 80H29.6774H58.5631L58.9589 79.604L59.3548 79.2082V74.4427V69.6774H63.2258H67.0968V70.5718C67.0968 71.3064 67.1676 71.5371 67.4927 71.8621L67.8885 72.2581H73.5484H79.2082L79.604 71.8621L80 71.4663V59.3548V47.2434L79.604 46.8476L79.2082 46.4516H73.5484H67.8885L67.4927 46.8476C67.1276 47.2126 67.0968 47.3634 67.0968 48.7831V50.3226H66.0856H65.0745L63.4703 48.7123L61.8661 47.1021L63.8363 45.1092C65.5742 43.3513 65.8064 43.0521 65.8064 42.5711C65.8064 42.079 65.5189 41.7382 62.8581 39.0774C60.1858 36.4052 59.8581 36.129 59.359 36.129C58.8585 36.129 58.5123 36.4237 55.5684 39.3548L52.3287 42.5806H48.4994H44.6702L43.9703 43.2258L43.2703 43.871H32.6029H21.9355V45.1613V46.4516H31.3269H40.7182L39.4355 47.7419L38.1527 49.0323H30.044H21.9355V50.3226V51.6129H28.7215H35.5073L35.1731 52.0379C34.8563 52.4405 34.8387 52.6627 34.8387 56.2639V60.0648L32.9368 62.0082L31.0348 63.9516L30.3335 67.5477C29.319 72.7506 29.1844 72.616 34.3877 71.6032L37.9839 70.9032L40.7306 68.1947L43.4773 65.486L44.036 65.6463C44.3432 65.7344 46.3335 65.8064 48.4587 65.8064H52.3229L54.2806 67.7419C55.3574 68.8064 56.359 69.6774 56.5063 69.6774C56.7485 69.6774 56.7742 70.0484 56.7742 73.5484V77.4193H29.6774H2.58065V40V2.58065H29.6774H56.7742V18.0645V33.5484H58.0645H59.3548V17.1702V0.791774L58.9589 0.395968L58.5631 0H29.6774H0.791774L0.395968 0.395968ZM18.5337 9.28597L17.4735 10.3461L11.7189 10.3287L5.96419 10.3115L5.56274 10.7129L5.16129 11.1144V16.7742V22.434L5.55726 22.8298L5.95306 23.2258H11.6129H17.2727L17.6685 22.8298L18.0645 22.434V17.9481V13.4619L19.7581 11.7742C20.6895 10.846 21.4516 10.0098 21.4516 9.91613C21.4516 9.70339 19.965 8.22581 19.751 8.22581C19.6645 8.22581 19.1168 8.7029 18.5337 9.28597ZM13.2677 14.5529L11.6181 16.2026L10.8439 15.44C10.4179 15.0206 10.0019 14.6774 9.91935 14.6774C9.70548 14.6774 8.22581 16.1616 8.22581 16.376C8.22581 16.4742 8.86968 17.1847 9.65661 17.9547C11.6106 19.8668 11.6242 19.866 13.8137 17.7113L15.4839 16.0677V18.3565V20.6452H11.6129H7.74194V16.7742V12.9032H11.3297H14.9174L13.2677 14.5529ZM21.9355 14.1935V15.4839H38.0645H54.1935V14.1935V12.9032H38.0645H21.9355V14.1935ZM21.9355 19.3548V20.6452H35.4839H49.0323V19.3548V18.0645H35.4839H21.9355V19.3548ZM51.6129 19.3548V20.6452H52.9032H54.1935V19.3548V18.0645H52.9032H51.6129V19.3548ZM18.5337 24.7698L17.4735 25.83L11.7189 25.8126L5.96419 25.7953L5.56274 26.1968L5.16129 26.5982V32.2581V37.9179L5.55726 38.3137L5.95306 38.7097H11.6129H17.2727L17.6685 38.3137L18.0645 37.9179V33.4319V28.9458L19.7581 27.2581C20.6895 26.3298 21.4516 25.4937 21.4516 25.4C21.4516 25.1873 19.965 23.7097 19.751 23.7097C19.6645 23.7097 19.1168 24.1868 18.5337 24.7698ZM13.2677 30.0368L11.6181 31.6864L10.8439 30.9239C10.4179 30.5045 10.0019 30.1613 9.91935 30.1613C9.70548 30.1613 8.22581 31.6455 8.22581 31.8598C8.22581 31.9581 8.86968 32.6685 9.65661 33.4385C11.6106 35.3506 11.6242 35.3498 13.8137 33.1952L15.4839 31.5516V33.8403V36.129H11.6129H7.74194V32.2581V28.3871H11.3297H14.9174L13.2677 30.0368ZM21.9355 29.6774V30.9677H38.0645H54.1935V29.6774V28.3871H38.0645H21.9355V29.6774ZM21.9355 34.8387V36.129H35.4839H49.0323V34.8387V33.5484H35.4839H21.9355V34.8387ZM51.6129 34.8387V36.129H52.9032H54.1935V34.8387V33.5484H52.9032H51.6129V34.8387ZM18.5337 40.2537L17.4735 41.3139L11.7189 41.2964L5.96419 41.2792L5.56274 41.6806L5.16129 42.0821V47.7419V53.4018L5.55726 53.7976L5.95306 54.1935H11.6129H17.2727L17.6685 53.7976L18.0645 53.4018V48.9158V44.4297L19.7581 42.7419C20.6895 41.8137 21.4516 40.9776 21.4516 40.8839C21.4516 40.6711 19.965 39.1935 19.751 39.1935C19.6645 39.1935 19.1168 39.6706 18.5337 40.2537ZM61.0495 40.9689L62.6576 42.5831L55.5779 49.664L48.4982 56.745L46.225 56.8C44.2192 56.8484 43.8661 56.8992 43.2258 57.2323C42.2411 57.744 41.6632 58.315 41.1584 59.2742C40.5892 60.3556 40.5535 62.1606 41.0818 63.1582L41.4303 63.8164L39.4242 65.8177L37.4179 67.8192L35.7661 66.1674L34.1144 64.5155L46.6939 51.9352C53.6126 45.016 59.3113 39.3548 59.3574 39.3548C59.4037 39.3548 60.1652 40.0811 61.0495 40.9689ZM13.2677 45.5206L11.6181 47.1703L10.8439 46.4077C10.4179 45.9884 10.0019 45.6452 9.91935 45.6452C9.70548 45.6452 8.22581 47.1294 8.22581 47.3437C8.22581 47.4419 8.86968 48.1524 9.65661 48.9224C11.6106 50.8345 11.6242 50.8337 13.8137 48.679L15.4839 47.0355V49.3242V51.6129H11.6129H7.74194V47.7419V43.871H11.3297H14.9174L13.2677 45.5206ZM43.6282 51.2916L37.5 57.4219L37.4545 55.4511L37.4089 53.4805L41.5661 49.321L45.7235 45.1613H47.74H49.7564L43.6282 51.2916ZM62.0226 50.9677L63.9803 52.9032H65.5385H67.0968V60V67.0968H62.2202H57.3435L55.4439 65.2016L53.544 63.3064L48.9523 63.2258L44.3603 63.1452L43.8334 62.6179C43.38 62.1642 43.3064 61.9789 43.3064 61.2903C43.3064 60.6016 43.38 60.4166 43.8335 59.9627L44.3608 59.4355L50.5674 59.3897L56.7742 59.3439V58.059V56.7742H54.4771H52.18L56.0484 52.9032C58.176 50.7742 59.9502 49.0323 59.9908 49.0323C60.0316 49.0323 60.9458 49.9032 62.0226 50.9677ZM77.4193 59.3548V69.6774H73.5484H69.6774V59.3548V49.0323H73.5484H77.4193V59.3548ZM18.5337 55.7376L17.4735 56.7977L11.7189 56.7803L5.96419 56.7631L5.56274 57.1645L5.16129 57.566V63.2258V68.8856L5.55726 69.2814L5.95306 69.6774H11.6129H17.2727L17.6685 69.2814L18.0645 68.8856V64.3997V59.9135L19.7581 58.2258C20.6895 57.2976 21.4516 56.4615 21.4516 56.3677C21.4516 56.155 19.965 54.6774 19.751 54.6774C19.6645 54.6774 19.1168 55.1545 18.5337 55.7376ZM13.2677 61.0045L11.6181 62.6542L10.8439 61.8916C10.4179 61.4723 10.0019 61.129 9.91935 61.129C9.70548 61.129 8.22581 62.6132 8.22581 62.8276C8.22581 62.9258 8.86968 63.6363 9.65661 64.4063C11.6106 66.3184 11.6242 66.3176 13.8137 64.1629L15.4839 62.5194V64.8081V67.0968H11.6129H7.74194V63.2258V59.3548H11.3297H14.9174L13.2677 61.0045ZM21.9355 60.6452V61.9355H25.1613H28.3871V60.6452V59.3548H25.1613H21.9355V60.6452ZM21.9355 65.8064V67.0968H25.1613H28.3871V65.8064V64.5161H25.1613H21.9355V65.8064ZM34.5555 68.8821C34.4435 68.9811 32.696 69.3589 32.6324 69.2979C32.5968 69.2637 32.8953 67.7485 33.0002 67.4311C33.0535 67.2698 33.315 67.4363 33.8758 67.9887C34.3156 68.4218 34.6215 68.8239 34.5555 68.8821Z" fill="#9EDAF0"/>
</svg>
