<svg width="32" height="32" viewBox="0 0 32 32" fill="none" xmlns="http://www.w3.org/2000/svg">
<path fill-rule="evenodd" clip-rule="evenodd" d="M14.5648 0.037865C11.4726 0.340606 8.61475 1.47977 6.10901 3.40833C4.88878 4.34748 3.30412 6.11246 2.38836 7.55224C1.99287 8.17406 1.22299 9.74974 0.947201 10.5017C0.638837 11.3426 0.31018 12.6275 0.14845 13.6246C-0.0494834 14.8449 -0.0494834 17.1619 0.14845 18.3823C0.428314 20.1075 0.871034 21.5021 1.62882 23.0461C2.45676 24.7329 3.31765 25.9286 4.69623 27.3065C6.07487 28.6842 7.27125 29.5446 8.95901 30.3721C10.5039 31.1295 11.8993 31.5719 13.6255 31.8516C14.8465 32.0495 17.1649 32.0495 18.3859 31.8516C20.1121 31.5719 21.5075 31.1295 23.0524 30.3721C24.7402 29.5446 25.9365 28.6842 27.3152 27.3065C28.6938 25.9286 29.5546 24.7329 30.3826 23.0461C30.9325 21.9257 31.2091 21.1914 31.5054 20.0653C31.8999 18.5658 32 17.7438 32 16.0034C32 14.2631 31.8999 13.4411 31.5054 11.9415C31.2091 10.8155 30.9325 10.0812 30.3826 8.96077C29.5546 7.27397 28.6938 6.07828 27.3152 4.70042C25.9365 3.32263 24.7402 2.46223 23.0524 1.63477C21.509 0.878102 20.086 0.426683 18.4172 0.16432C17.4965 0.0195853 15.4406 -0.0478991 14.5648 0.037865ZM17.8535 4.01425C21.8038 4.65761 25.0837 7.06307 26.8818 10.6358C27.7227 12.3066 28.1207 14.0312 28.1207 16.0034C28.1207 18.769 27.2971 21.1989 25.617 23.3904C23.7292 25.8528 20.9956 27.4698 17.8222 28.0014C16.9184 28.1528 15.0929 28.1528 14.1892 28.0014C11.5322 27.5564 9.33201 26.4415 7.46617 24.5947C5.6024 22.75 4.44988 20.4963 4.00089 17.8189C3.84944 16.9157 3.84944 15.0912 4.00089 14.188C4.44618 11.5325 5.56169 9.33356 7.40949 7.46879C9.30057 5.56038 11.7777 4.32288 14.3771 3.98796C14.67 3.95021 14.9941 3.90795 15.0975 3.89399C15.4961 3.84028 17.2568 3.91709 17.8535 4.01425ZM15.3637 6.06213L14.8156 6.50955V10.1693V13.829L14.4119 14.1987C13.7226 14.83 13.4661 15.5871 13.6449 16.4632C13.8467 17.452 14.5553 18.1611 15.5429 18.3623C16.4225 18.5416 17.179 18.2861 17.8115 17.5963L18.1814 17.1929H20.7435H23.3056L23.8523 16.6439C24.1531 16.3419 24.3991 16.0537 24.3991 16.0034C24.3991 15.9532 24.1531 15.665 23.8523 15.363L23.3056 14.814H20.7555H18.2056L17.7007 14.3094L17.1958 13.8048V10.1608V6.51681L16.6286 6.09224C16.3167 5.85868 16.0277 5.65572 15.9866 5.6412C15.9454 5.62668 15.6651 5.81611 15.3637 6.06213Z" fill="url(#paint0_linear_0_373)"/>
<defs>
<linearGradient id="paint0_linear_0_373" x1="7.48936" y1="25.1915" x2="38.8085" y2="4.16396e-07" gradientUnits="userSpaceOnUse">
<stop stop-color="#63AFCD"/>
<stop offset="1" stop-color="#FF374F"/>
</linearGradient>
</defs>
</svg>
