<svg width="31" height="34" viewBox="0 0 31 34" fill="none" xmlns="http://www.w3.org/2000/svg">
<path fill-rule="evenodd" clip-rule="evenodd" d="M14.6517 0.049188C14.1714 0.134986 13.4912 0.388524 13.0337 0.65223C12.7449 0.818641 11.138 2.36406 6.68455 6.75821C3.40511 9.994 0.629251 12.7728 0.515876 12.9334C-0.118867 13.8328 -0.173038 15.1378 0.382094 16.156C0.642139 16.6331 1.18573 17.1448 1.69729 17.3941L2.13616 17.608L2.15805 23.7975C2.18268 30.7571 2.14576 30.2486 2.70875 31.3852C3.35893 32.6978 4.57095 33.6058 6.0729 33.9056C6.54882 34.0006 7.58531 34.01 15.7685 33.9933L24.9312 33.9745L25.4682 33.7881C26.2512 33.5163 26.8754 33.1259 27.4608 32.5418C27.8898 32.1138 28.0329 31.9115 28.3114 31.3394C28.4955 30.9611 28.6843 30.5021 28.7307 30.3193C28.7948 30.0676 28.8211 28.4867 28.8393 23.7976L28.8632 17.6083L29.3024 17.3943C29.8143 17.1448 30.3578 16.6332 30.6179 16.156C31.173 15.1378 31.1189 13.8328 30.4841 12.9334C30.3707 12.7728 27.5949 9.99347 24.3154 6.75708C17.8505 0.37696 18.0533 0.557195 16.9432 0.207159C16.34 0.0170222 15.2516 -0.0580756 14.6517 0.049188ZM16.3222 2.21021C16.4976 2.25959 16.7996 2.40487 16.9935 2.53313C17.1873 2.6614 19.9339 5.33215 23.097 8.46812C28.7437 14.0664 28.8489 14.1755 28.8925 14.4739C28.9794 15.069 28.5956 15.5429 27.9519 15.6352C27.3549 15.7209 27.0848 15.8837 26.8547 16.2966C26.754 16.4773 26.7404 17.1262 26.71 23.2083L26.6765 29.9206L26.4696 30.3527C26.0779 31.171 25.2733 31.7518 24.3476 31.8843C23.792 31.9638 7.208 31.9638 6.6524 31.8843C5.72666 31.7518 4.92209 31.171 4.53041 30.3527L4.32353 29.9206L4.28997 23.2083C4.25956 17.1262 4.246 16.4773 4.14531 16.2966C3.9152 15.8837 3.64509 15.7209 3.04814 15.6352C2.4044 15.5429 2.02064 15.069 2.1075 14.4739C2.15106 14.1755 2.25632 14.0664 7.90295 8.46812C11.0661 5.33215 13.8127 2.6614 14.0065 2.53313C14.7038 2.07191 15.4577 1.96677 16.3222 2.21021ZM9.74898 13.1799C9.20815 13.4455 9.12968 13.7142 9.12599 15.3127L9.12303 16.5884L8.80546 16.6087C8.52575 16.6265 8.48003 16.6513 8.42177 16.8159C8.35847 16.9952 8.39217 17.0388 9.23111 17.8627C9.71253 18.3355 10.1472 18.7224 10.197 18.7224C10.2469 18.7224 10.6816 18.3355 11.163 17.8627C12.0019 17.0388 12.0356 16.9952 11.9723 16.8159C11.9141 16.6513 11.8684 16.6265 11.5886 16.6087L11.2711 16.5884V15.861V15.1336H15.4907H19.7103L19.7477 15.5425C19.7707 15.7929 19.8353 16.0184 19.9143 16.124C20.405 16.7801 21.2983 16.7501 21.7055 16.0638C21.828 15.8573 21.8434 15.7204 21.8434 14.8346C21.8434 13.7214 21.7927 13.5448 21.3913 13.2614L21.1721 13.1066L15.5671 13.091C10.5801 13.0769 9.93861 13.0868 9.74898 13.1799ZM19.8118 19.9362C19.2647 20.4792 18.9905 20.7996 18.9905 20.8961C18.9905 21.0844 19.2313 21.2478 19.509 21.2478H19.7289V21.9456V22.6434H15.5H11.2711L11.2696 22.3609C11.2676 21.9817 11.0679 21.5688 10.7923 21.3741C10.4783 21.1524 9.91901 21.1501 9.60869 21.3693C9.20735 21.6527 9.1566 21.8293 9.1566 22.9425C9.1566 24.0616 9.21869 24.2615 9.65682 24.5539L9.88129 24.7036H15.5H21.1187L21.3432 24.5539C21.8001 24.249 21.8409 24.0959 21.8652 22.5935L21.8868 21.2478H22.1169C22.3653 21.2478 22.6154 21.0591 22.6154 20.8715C22.6154 20.8109 22.2469 20.3922 21.7965 19.9411C21.1719 19.3157 20.9367 19.1211 20.8054 19.1211C20.6745 19.1211 20.436 19.3167 19.8118 19.9362Z" fill="url(#paint0_linear_0_389)"/>
<defs>
<linearGradient id="paint0_linear_0_389" x1="7.25532" y1="26.766" x2="39.7489" y2="2.93595" gradientUnits="userSpaceOnUse">
<stop stop-color="#63AFCD"/>
<stop offset="1" stop-color="#FF374F"/>
</linearGradient>
</defs>
</svg>
