<svg width="29" height="39" viewBox="0 0 29 39" fill="none" xmlns="http://www.w3.org/2000/svg">
<path fill-rule="evenodd" clip-rule="evenodd" d="M0 19.5V39H1.11538H2.23077V37.8574V36.7148H3.34615H4.46154V37.8574V39H5.57692H6.69231V37.8574V36.7148H7.80769H8.92308V37.8574V39H10.0385H11.1538V37.8574V36.7148H12.2692H13.3846V37.8574V39H14.5H15.6154V37.8574V36.7148H16.7308H17.8462V37.8574V39H18.9615H20.0769V37.8574V36.7148H21.1923H22.3077V37.8574V39H23.4231H24.5385V37.8574V36.7148H25.6538H26.7692V37.8574V39H27.8846H29V19.5V0H27.8846H26.7692V1.14258V2.28516H25.6538H24.5385V1.14258V0H23.4231H22.3077V1.14258V2.28516H21.1923H20.0769V1.14258V0H18.9615H17.8462V1.14258V2.28516H16.7308H15.6154V1.14258V0H14.5H13.3846V1.14258V2.28516H12.2692H11.1538V1.14258V0H10.0385H8.92308V1.14258V2.28516H7.80769H6.69231V1.14258V0H5.57692H4.46154V1.14258V2.28516H3.34615H2.23077V1.14258V0H1.11538H0V19.5ZM26.7692 19.5V34.4297H14.5H2.23077V19.5V4.57031H14.5H26.7692V19.5ZM4.46154 19.5V32.1445H14.5H24.5385V19.5V6.85547H14.5H4.46154V19.5ZM22.3077 19.5V29.8594H14.5H6.69231V19.5V9.14062H14.5H22.3077V19.5ZM11.6742 16.6437L8.88642 19.5002L11.6932 22.3755L14.5 25.2507L17.3068 22.3755L20.1136 19.5002L17.3258 16.6437C15.7924 15.0726 14.5209 13.7871 14.5 13.7871C14.4791 13.7871 13.2076 15.0726 11.6742 16.6437ZM15.7272 18.2816L16.9155 19.5006L15.7077 20.7378L14.5 21.975L13.2923 20.7378L12.0845 19.5006L13.2728 18.2816C13.9263 17.6111 14.4786 17.0625 14.5 17.0625C14.5214 17.0625 15.0737 17.6111 15.7272 18.2816Z" fill="url(#paint0_linear_0_393)"/>
<defs>
<linearGradient id="paint0_linear_0_393" x1="6.78723" y1="30.7021" x2="41.2168" y2="10.1096" gradientUnits="userSpaceOnUse">
<stop stop-color="#63AFCD"/>
<stop offset="1" stop-color="#FF374F"/>
</linearGradient>
</defs>
</svg>
