<svg width="35" height="31" viewBox="0 0 35 31" fill="none" xmlns="http://www.w3.org/2000/svg">
<path fill-rule="evenodd" clip-rule="evenodd" d="M12.7906 0.0669366C11.9174 0.239738 11.0343 0.930253 10.6626 1.7308C10.4109 2.27305 10.3223 2.73764 10.3223 3.51566V4.12639H5.56855C0.939189 4.12639 0.807803 4.13004 0.545098 4.26508C0.371396 4.35438 0.226201 4.50072 0.137607 4.67579C0.00129883 4.94512 0 5.05791 0 16.5163C0 24.0969 0.0240625 28.2126 0.0697949 28.4556C0.302627 29.693 1.29411 30.6924 2.52185 30.927C3.03071 31.0243 31.9693 31.0243 32.4782 30.927C33.0589 30.816 33.6627 30.4939 34.0816 30.0717C34.5005 29.6495 34.8201 29.0409 34.9302 28.4556C34.9759 28.2127 35 24.1024 35 16.5336V4.9824L34.8462 4.67497C34.5566 4.09621 34.8561 4.12659 29.4458 4.12652L24.6777 4.12639V3.51566C24.6777 3.17984 24.6464 2.73812 24.6079 2.53418C24.3751 1.29673 23.3836 0.297407 22.1559 0.0627336C21.7049 -0.0234603 13.2282 -0.0196707 12.7906 0.0669366ZM22.0798 2.20532C22.4928 2.43923 22.627 2.75638 22.627 3.49843V4.12639H17.5H12.373V3.49843C12.373 2.76182 12.505 2.44488 12.9103 2.20807C13.1564 2.06421 13.2085 2.06256 17.4907 2.06097C21.7774 2.05939 21.8249 2.0609 22.0798 2.20532ZM32.5222 6.27951C32.505 6.32691 31.7758 8.52937 30.902 11.174C29.7851 14.5537 29.2629 16.0423 29.1443 16.1844C29.0515 16.2956 28.8622 16.4183 28.7237 16.4571C28.57 16.5001 27.3317 16.5278 25.5493 16.528L22.627 16.5284V15.9055C22.627 15.1381 22.49 14.8099 22.0819 14.6001C21.8199 14.4654 21.6868 14.4614 17.5 14.4614C13.3132 14.4614 13.1801 14.4654 12.9181 14.6001C12.51 14.8099 12.373 15.1381 12.373 15.9055V16.5284L9.45068 16.528C7.66828 16.5278 6.43002 16.5001 6.27635 16.4571C6.13778 16.4183 5.9485 16.2956 5.85566 16.1844C5.73706 16.0423 5.21486 14.5537 4.09801 11.174C3.22417 8.52937 2.49505 6.32691 2.47775 6.27951C2.45267 6.21075 5.48584 6.19339 17.5 6.19339C29.5142 6.19339 32.5473 6.21075 32.5222 6.27951ZM3.89437 16.9387C4.1179 17.3787 4.72363 17.9903 5.15252 18.209C5.88567 18.5828 6.0025 18.5937 9.31396 18.5946L12.373 18.5954V19.2182C12.373 19.9857 12.51 20.3138 12.9181 20.5237C13.1801 20.6583 13.3132 20.6624 17.5 20.6624C21.6868 20.6624 21.8199 20.6583 22.0819 20.5237C22.49 20.3138 22.627 19.9857 22.627 19.2182V18.5954L25.686 18.5946C28.9975 18.5937 29.1143 18.5828 29.8475 18.209C30.2764 17.9903 30.8821 17.3787 31.1056 16.9387C31.1914 16.7699 31.6389 15.5001 32.1001 14.1169L32.9386 11.602L32.9439 19.8607L32.9492 28.1193L32.8044 28.3789C32.7248 28.5217 32.5438 28.7042 32.4021 28.7845L32.1445 28.9304H17.5H2.85551L2.59793 28.7845C2.45622 28.7042 2.27521 28.5217 2.19557 28.3789L2.05078 28.1193L2.05611 19.8607L2.06145 11.602L2.89994 14.1169C3.36109 15.5001 3.80857 16.7699 3.89437 16.9387ZM20.5762 17.5619V18.5954H17.5H14.4238V17.5619V16.5284H17.5H20.5762V17.5619Z" fill="url(#paint0_linear_0_405)"/>
<defs>
<linearGradient id="paint0_linear_0_405" x1="8.19149" y1="24.4043" x2="39.1102" y2="-3.67411" gradientUnits="userSpaceOnUse">
<stop stop-color="#63AFCD"/>
<stop offset="1" stop-color="#FF374F"/>
</linearGradient>
</defs>
</svg>
