<svg width="43" height="34" viewBox="0 0 43 34" fill="none" xmlns="http://www.w3.org/2000/svg">
<path fill-rule="evenodd" clip-rule="evenodd" d="M4.63652 1.14044C3.2997 1.53314 2.14624 2.45971 1.56699 3.60599C0.952025 4.8231 0.985255 4.03946 1.01128 16.7005C1.03722 29.3511 0.985655 28.2655 1.6232 29.5894C2.33553 31.0686 3.64273 32.2091 5.27711 32.7773L5.9177 33H21.492H37.0663L37.7678 32.7513C39.3947 32.1748 40.6461 31.0735 41.3608 29.5894C41.9423 28.382 41.9397 28.4033 41.9715 24.4836L42 20.9641L41.7892 20.5375C41.0447 19.0301 38.7879 19.6158 38.7879 21.3164C38.7879 21.5259 38.766 21.6974 38.7393 21.6974C38.7127 21.6974 38.4695 21.6393 38.1988 21.5682C37.5608 21.4006 36.2488 21.4022 35.705 21.5712C35.4848 21.6397 35.277 21.6961 35.2432 21.6965C35.2093 21.697 35.1913 18.0301 35.2031 13.5477L35.2246 5.39791L35.4248 5.04447C35.735 4.49687 36.1956 4.21951 36.8565 4.18254C37.4639 4.14852 37.915 4.31516 38.2856 4.71063C38.764 5.22103 38.7443 5.02933 38.7879 9.61484L38.8279 13.8317L39.0692 14.1755C39.7174 15.0992 41.0613 15.0991 41.7095 14.1755L41.9508 13.8316L41.9729 9.67893C41.9978 4.96944 41.9852 4.83191 41.4193 3.6953C40.8011 2.45345 39.5547 1.45755 38.1905 1.11554C37.5663 0.959047 36.341 0.961982 35.7166 1.12157C34.5955 1.40806 33.3397 2.32694 32.7284 3.30808L32.4393 3.77192L21.4606 3.7697L10.4819 3.7674L10.2285 3.35226C9.63943 2.38738 8.71202 1.63712 7.63744 1.25609C6.84727 0.975941 5.38785 0.919706 4.63652 1.14044ZM6.66094 4.29168C7.03857 4.44794 7.36599 4.75505 7.58659 5.15996L7.75939 5.47722L7.78085 13.5873C7.7927 18.0479 7.77989 21.6974 7.75242 21.6974C7.72496 21.6974 7.48105 21.6393 7.21041 21.5682C6.57238 21.4006 5.26038 21.4022 4.7166 21.5712C4.4964 21.6397 4.28925 21.6961 4.25618 21.6965C4.16433 21.6979 4.18275 5.6867 4.27499 5.35825C4.38397 4.97023 4.80524 4.49235 5.19135 4.31865C5.59196 4.13836 6.26081 4.12615 6.66094 4.29168ZM31.9816 16.768C31.9816 23.9007 32.0066 26.6652 32.0727 26.861C32.3034 27.5435 32.8784 27.9634 33.5824 27.9634C34.1165 27.9634 34.4393 27.8206 34.7996 27.4251C35.0899 27.1064 35.1283 26.994 35.2189 26.1973C35.3769 24.8084 36.8542 24.1371 38.0122 24.9281C38.5184 25.2737 38.7342 25.7319 38.7734 26.5444C38.8466 28.0611 38.1295 29.2185 36.8146 29.7058C36.3831 29.8657 36.2629 29.867 21.492 29.867C6.72108 29.867 6.60089 29.8657 6.16937 29.7058C4.91694 29.2417 4.19548 28.1446 4.1966 26.7059C4.19716 25.9402 4.29998 25.5737 4.6133 25.2202C5.65634 24.0434 7.54856 24.6504 7.76131 26.23C7.78686 26.4199 7.82593 26.6935 7.84819 26.8379C7.89704 27.1557 8.37924 27.7079 8.73773 27.8566C9.11736 28.014 9.7541 27.9905 10.1201 27.8055C10.4701 27.6286 10.7746 27.265 10.9112 26.861C10.9774 26.6652 11.0024 23.9007 11.0024 16.768V6.94458H21.492H31.9816V16.768ZM16.3382 9.27743C15.748 9.49389 15.2519 10.1556 15.248 10.7319C15.2464 10.9692 15.2255 10.9899 14.986 10.9915C14.3652 10.9956 13.6523 11.5626 13.4825 12.1873C13.2274 13.1255 13.9985 14.1624 14.9513 14.1624H15.2463V17.9585V21.7546L14.8335 21.8031C13.8849 21.9144 13.2366 22.847 13.4815 23.7481C13.6523 24.3763 14.3636 24.9435 14.986 24.9476C15.2255 24.9492 15.2464 24.9699 15.248 25.2072C15.2522 25.8221 15.8246 26.5283 16.4553 26.6965C17.4025 26.9491 18.4492 26.1854 18.4492 25.2416V24.9494H21.492H24.5348V25.2416C24.5348 26.1854 25.5815 26.9491 26.5287 26.6965C27.1593 26.5283 27.7318 25.8221 27.736 25.2072C27.7376 24.9699 27.7585 24.9492 27.998 24.9476C28.6204 24.9435 29.3317 24.3763 29.5025 23.7481C29.7641 22.7854 28.978 21.7767 27.966 21.7767H27.7377L27.736 20.4878C27.734 19.0119 27.6566 18.7316 27.1335 18.3045C26.3277 17.6466 25.132 17.9286 24.6866 18.8817C24.5618 19.1487 24.538 19.4029 24.5365 20.4878L24.5348 21.7767H21.492H18.4492V17.9696V14.1624H23.3884C28.2748 14.1624 28.3315 14.1605 28.6824 13.9923C29.3168 13.6881 29.6874 12.8715 29.5015 12.1873C29.3317 11.5626 28.6188 10.9956 27.998 10.9915C27.7585 10.9899 27.7376 10.9692 27.736 10.7319C27.7318 10.1154 27.1592 9.41084 26.5249 9.24166C25.6139 8.99863 24.643 9.66481 24.5527 10.5946L24.5144 10.9897H21.4929H18.4715L18.4226 10.5808C18.3053 9.59945 17.2536 8.94184 16.3382 9.27743Z" fill="url(#paint0_linear_0_397)" stroke="white"/>
<defs>
<linearGradient id="paint0_linear_0_397" x1="10.5957" y1="26.1915" x2="42.6456" y2="-6.83817" gradientUnits="userSpaceOnUse">
<stop stop-color="#63AFCD"/>
<stop offset="1" stop-color="#FF374F"/>
</linearGradient>
</defs>
</svg>
