<svg width="32" height="32" viewBox="0 0 32 32" fill="none" xmlns="http://www.w3.org/2000/svg">
<path fill-rule="evenodd" clip-rule="evenodd" d="M7.47875 0.0841531C7.18241 0.22192 6.91672 0.505328 6.80407 0.803837C6.74655 0.956144 6.71847 2.87115 6.71799 6.66798L6.71735 12.306L3.69519 14.0106C2.03295 14.9482 0.577114 15.8157 0.459908 15.9386C0.0129248 16.4071 -0.00179603 16.5202 0.000124067 19.4729C0.00204416 22.4682 0.0176451 22.5731 0.528311 23.0394C0.836807 23.321 15.1518 31.7877 15.5592 31.9294C15.9203 32.0551 16.363 32.0112 16.7476 31.8117C17.5423 31.3994 31.2792 23.2151 31.4701 23.0402C31.9814 22.5716 31.9963 22.4704 31.9982 19.4511L32 16.7156L31.7905 16.2935C31.6219 15.9537 31.4937 15.8213 31.134 15.615C30.8881 15.4739 29.4073 14.6329 27.8433 13.7461L24.9996 12.1335L24.9596 6.46185C24.9204 0.890674 24.9167 0.786244 24.7547 0.568387C24.4412 0.146891 24.1855 0.0153901 23.6796 0.0153901C23.1736 0.0153901 22.918 0.146891 22.6045 0.568387C22.4431 0.78528 22.4386 0.898305 22.3995 5.71614L22.3595 10.6421L19.8394 9.21463L17.3193 7.78707L17.2792 4.28858C17.2407 0.913167 17.2334 0.782308 17.0743 0.568387C16.7607 0.146891 16.505 0.0153901 15.9992 0.0153901C15.4933 0.0153901 15.2376 0.146891 14.9241 0.568387C14.7649 0.782308 14.7577 0.913166 14.7191 4.29099L14.6791 7.79197L12.0048 9.30588C10.5339 10.1386 9.31964 10.8199 9.30644 10.8199C9.29316 10.8199 9.2726 8.56322 9.2606 5.80507C9.23924 0.882721 9.2358 0.786083 9.07387 0.568467C8.98314 0.446445 8.81481 0.276063 8.69985 0.189869C8.43472 -0.00886972 7.79756 -0.0640571 7.47875 0.0841531ZM14.9241 21.232C15.2375 21.6535 15.4932 21.785 15.9992 21.785C16.5051 21.785 16.7608 21.6535 17.0743 21.232C17.2358 21.0148 17.24 20.9042 17.2792 15.8765L17.3193 10.7428L19.8394 12.1688L22.3595 13.5947L22.3995 15.0534C22.4431 16.6444 22.4672 16.7287 22.9903 17.1209C23.3001 17.3531 24.059 17.3531 24.3688 17.1209C24.8163 16.7854 24.9149 16.5646 24.9588 15.8007L24.9996 15.0874L26.6397 16.014C27.5418 16.5236 28.3041 16.9642 28.3339 16.9931C28.3637 17.0219 25.602 18.647 22.1969 20.6043L16.0058 24.1631L11.5023 21.5737C9.02531 20.1495 6.23076 18.5427 5.29207 18.0031L3.58543 17.0219L4.97206 16.2403C5.73474 15.8104 6.43597 15.4107 6.53038 15.3521C6.69975 15.2467 6.70247 15.2541 6.73079 15.8789C6.76151 16.5586 6.86992 16.7913 7.30954 17.1209C7.61931 17.3531 8.37823 17.3531 8.68801 17.1209C9.20564 16.7328 9.23532 16.6337 9.27884 15.1458L9.31884 13.7794L11.999 12.262L14.6791 10.7445L14.7191 15.8773C14.7583 20.9042 14.7626 21.0148 14.9241 21.232ZM9.11835 23.1696C12.5282 25.1314 15.4713 26.7776 15.6587 26.8279C15.9143 26.8966 16.0853 26.8962 16.3444 26.8267C16.5343 26.7757 19.4954 25.12 22.9247 23.1472C26.354 21.1745 29.2229 19.5265 29.2999 19.4851C29.4295 19.4152 29.4399 19.4799 29.4399 20.366V21.3223L22.7205 25.3023L16.0011 29.2824L11.4999 26.6138C9.02427 25.1461 5.99963 23.3559 4.77861 22.6356L2.55849 21.326V20.3678V19.4096L2.7385 19.5062C2.83747 19.5594 5.70842 21.2078 9.11835 23.1696Z" fill="url(#paint0_linear_0_401)"/>
<defs>
<linearGradient id="paint0_linear_0_401" x1="7.48936" y1="25.1915" x2="38.8085" y2="4.16396e-07" gradientUnits="userSpaceOnUse">
<stop stop-color="#63AFCD"/>
<stop offset="1" stop-color="#FF374F"/>
</linearGradient>
</defs>
</svg>
