<svg width="32" height="34" viewBox="0 0 32 34" fill="none" xmlns="http://www.w3.org/2000/svg">
<path fill-rule="evenodd" clip-rule="evenodd" d="M9.17101 0.0695873C8.68692 0.293046 8.53808 0.624381 8.53808 1.47843V2.10516L6.18958 2.10629C3.50342 2.10762 3.24905 2.13924 2.34629 2.5835C1.24146 3.1272 0.367683 4.25286 0.11038 5.46395C-0.0367933 6.15671 -0.0367933 29.9383 0.11038 30.6311C0.446499 32.213 1.79231 33.5548 3.37897 33.8899C4.07379 34.0367 27.9262 34.0367 28.621 33.8899C30.2077 33.5548 31.5535 32.213 31.8896 30.6311C32.0368 29.9383 32.0368 6.15671 31.8896 5.46395C31.6323 4.25286 30.7585 3.1272 29.6537 2.5835C28.7513 2.13937 28.496 2.10762 25.8163 2.10629L23.4737 2.10516L23.4511 1.37912C23.4268 0.594555 23.3689 0.44669 22.9699 0.149698C22.7119 -0.0423413 22.0799 -0.0423413 21.822 0.149698C21.4229 0.44669 21.365 0.594555 21.3407 1.37912L21.3181 2.10516H16H10.6819L10.6593 1.37912C10.6351 0.598607 10.5763 0.446092 10.1879 0.157004C9.96711 -0.00733455 9.43651 -0.0529695 9.17101 0.0695873ZM8.54888 4.95685C8.57319 5.74141 8.63109 5.88928 9.0301 6.18627C9.28807 6.37831 9.92007 6.37831 10.178 6.18627C10.5771 5.88928 10.6349 5.74141 10.6593 4.95685L10.6819 4.23081H16H21.3181L21.3407 4.95685C21.3596 5.56445 21.3856 5.71285 21.5006 5.86609C21.7178 6.15571 21.9577 6.30205 22.2737 6.33752C22.6605 6.38103 22.9949 6.23615 23.2366 5.92056C23.4165 5.68561 23.43 5.6243 23.4513 4.94722L23.4738 4.22463L25.8497 4.24429L28.2256 4.26402L28.5977 4.43806C29.0708 4.65926 29.4281 5.0155 29.65 5.4872C29.8168 5.84178 29.8255 5.91638 29.8462 7.17018L29.8678 8.4821H16.005H2.14215V7.29851C2.14215 5.9834 2.20225 5.6597 2.54097 5.14982C2.77988 4.79018 3.15058 4.51896 3.62787 4.35449C3.93441 4.24887 4.23669 4.23492 6.25034 4.233L8.52629 4.23081L8.54888 4.95685ZM29.8421 20.4223L29.8245 30.2368L29.65 30.6078C29.4281 31.0795 29.0708 31.4358 28.5977 31.657L28.2256 31.831H16H3.77445L3.40228 31.657C2.92919 31.4358 2.57188 31.0795 2.35002 30.6078L2.17547 30.2368L2.15794 20.4223L2.14042 10.6077H16H29.8596L29.8421 20.4223ZM5.75985 14.9804C5.27949 15.1491 4.91086 15.4199 4.67181 15.7798C4.30984 16.3246 4.2622 16.6232 4.28606 18.197C4.30671 19.5589 4.31357 19.6215 4.482 19.9796C4.70386 20.4513 5.06116 20.8075 5.53426 21.0287C5.90269 21.201 5.92208 21.2028 7.47209 21.2028C9.02211 21.2028 9.0415 21.201 9.40993 21.0287C9.88303 20.8075 10.2403 20.4513 10.4622 19.9796C10.635 19.6122 10.6367 19.5929 10.6367 18.0475C10.6367 16.5021 10.635 16.4828 10.4622 16.1154C10.2403 15.6437 9.88303 15.2875 9.40993 15.0663C9.04809 14.8971 8.99699 14.8918 7.57203 14.8755C6.29358 14.8609 6.06206 14.8742 5.75985 14.9804ZM14.2878 14.9804C13.8074 15.1491 13.4388 15.4199 13.1997 15.7798C12.8377 16.3246 12.7901 16.6232 12.814 18.197C12.8346 19.5589 12.8415 19.6215 13.0099 19.9796C13.2318 20.4513 13.5891 20.8075 14.0622 21.0287C14.4306 21.201 14.45 21.2028 16 21.2028C17.55 21.2028 17.5694 21.201 17.9378 21.0287C18.4109 20.8075 18.7682 20.4513 18.9901 19.9796C19.1629 19.6122 19.1647 19.5929 19.1647 18.0475C19.1647 16.5021 19.1629 16.4828 18.9901 16.1154C18.7682 15.6437 18.4109 15.2875 17.9378 15.0663C17.576 14.8971 17.5249 14.8918 16.0999 14.8755C14.8215 14.8609 14.59 14.8742 14.2878 14.9804ZM22.8157 14.9804C22.3353 15.1491 21.9667 15.4199 21.7276 15.7798C21.3657 16.3246 21.318 16.6232 21.3419 18.197C21.3625 19.5589 21.3694 19.6215 21.5378 19.9796C21.7597 20.4513 22.117 20.8075 22.5901 21.0287C22.9585 21.201 22.9779 21.2028 24.5279 21.2028C26.0779 21.2028 26.0973 21.201 26.4657 21.0287C26.9388 20.8075 27.2961 20.4513 27.518 19.9796C27.6908 19.6122 27.6926 19.5929 27.6926 18.0475C27.6926 16.5021 27.6908 16.4828 27.518 16.1154C27.2961 15.6437 26.9388 15.2875 26.4657 15.0663C26.1039 14.8971 26.0528 14.8918 24.6278 14.8755C23.3494 14.8609 23.1179 14.8742 22.8157 14.9804ZM8.53808 18.0475V19.1103H7.47209H6.40611V18.0475V16.9847H7.47209H8.53808V18.0475ZM17.066 18.0475V19.1103H16H14.934V18.0475V16.9847H16H17.066V18.0475ZM25.5939 18.0475V19.1103H24.5279H23.4619V18.0475V16.9847H24.5279H25.5939V18.0475ZM5.75985 23.483C5.27949 23.6517 4.91086 23.9225 4.67181 24.2824C4.30984 24.8272 4.2622 25.1258 4.28606 26.6996C4.30671 28.0615 4.31357 28.1241 4.482 28.4822C4.70386 28.9539 5.06116 29.3101 5.53426 29.5313C5.90269 29.7036 5.92208 29.7053 7.47209 29.7053C9.02211 29.7053 9.0415 29.7036 9.40993 29.5313C9.88303 29.3101 10.2403 28.9539 10.4622 28.4822C10.635 28.1148 10.6367 28.0955 10.6367 26.5501C10.6367 25.0047 10.635 24.9854 10.4622 24.618C10.2403 24.1463 9.88303 23.7901 9.40993 23.5689C9.04809 23.3997 8.99699 23.3944 7.57203 23.3781C6.29358 23.3635 6.06206 23.3768 5.75985 23.483ZM14.2878 23.483C13.8074 23.6517 13.4388 23.9225 13.1997 24.2824C12.8377 24.8272 12.7901 25.1258 12.814 26.6996C12.8346 28.0615 12.8415 28.1241 13.0099 28.4822C13.2318 28.9539 13.5891 29.3101 14.0622 29.5313C14.4306 29.7036 14.45 29.7053 16 29.7053C17.55 29.7053 17.5694 29.7036 17.9378 29.5313C18.4109 29.3101 18.7682 28.9539 18.9901 28.4822C19.1629 28.1148 19.1647 28.0955 19.1647 26.5501C19.1647 25.0047 19.1629 24.9854 18.9901 24.618C18.7682 24.1463 18.4109 23.7901 17.9378 23.5689C17.576 23.3997 17.5249 23.3944 16.0999 23.3781C14.8215 23.3635 14.59 23.3768 14.2878 23.483ZM22.8157 23.483C22.3353 23.6517 21.9667 23.9225 21.7276 24.2824C21.3657 24.8272 21.318 25.1258 21.3419 26.6996C21.3625 28.0615 21.3694 28.1241 21.5378 28.4822C21.7597 28.9539 22.117 29.3101 22.5901 29.5313C22.9585 29.7036 22.9779 29.7053 24.5279 29.7053C26.0779 29.7053 26.0973 29.7036 26.4657 29.5313C26.9388 29.3101 27.2961 28.9539 27.518 28.4822C27.6908 28.1148 27.6926 28.0955 27.6926 26.5501C27.6926 25.0047 27.6908 24.9854 27.518 24.618C27.2961 24.1463 26.9388 23.7901 26.4657 23.5689C26.1039 23.3997 26.0528 23.3944 24.6278 23.3781C23.3494 23.3635 23.1179 23.3768 22.8157 23.483ZM8.53808 26.5501V27.6129H7.47209H6.40611V26.5501V25.4873H7.47209H8.53808V26.5501ZM17.066 26.5501V27.6129H16H14.934V26.5501V25.4873H16H17.066V26.5501ZM25.5939 26.5501V27.6129H24.5279H23.4619V26.5501V25.4873H24.5279H25.5939V26.5501Z" fill="url(#paint0_linear_0_377)"/>
<defs>
<linearGradient id="paint0_linear_0_377" x1="7.48936" y1="26.766" x2="40.2793" y2="1.94287" gradientUnits="userSpaceOnUse">
<stop stop-color="#63AFCD"/>
<stop offset="1" stop-color="#FF374F"/>
</linearGradient>
</defs>
</svg>
