<svg width="34" height="33" viewBox="0 0 34 33" fill="none" xmlns="http://www.w3.org/2000/svg">
<path fill-rule="evenodd" clip-rule="evenodd" d="M13.1187 1.09888C11.7743 1.46207 10.7879 2.39406 10.3243 3.73914C10.174 4.17486 10.1506 4.34007 10.1497 4.96721C10.1484 5.97607 10.3593 6.63232 10.9338 7.40615C11.0678 7.58661 11.1774 7.7568 11.1774 7.78433C11.1774 7.81193 8.96664 10.0589 6.26453 12.7776C0.671072 18.4054 1.00585 18.0062 1.00303 19.0513C1.00159 19.5678 1.02019 19.6581 1.20648 20.0388C1.46636 20.5699 1.95888 21.0367 2.45753 21.2244C3.07429 21.4566 3.97178 21.3845 4.45841 21.0637L4.59849 20.9714L4.61596 25.8076C4.63206 30.2406 4.64258 30.6641 4.74221 30.8857C4.93302 31.3103 5.21606 31.6066 5.62329 31.8081L6.01117 32L17.0638 31.9836C27.9113 31.9674 28.1211 31.9648 28.3649 31.8432C28.7034 31.6743 29.0722 31.2899 29.2344 30.9368C29.3678 30.6463 29.3691 30.6042 29.3865 25.8184L29.4039 20.9929L29.7027 21.1417C30.3141 21.4462 31.1181 21.4425 31.7482 21.1323C32.1618 20.9287 32.6155 20.4454 32.8321 19.9774C32.9737 19.6717 32.9991 19.5309 33 19.0487C33.0017 18.0851 32.9583 18.0238 30.6063 15.6632C28.4654 13.5146 28.5005 13.5411 28.0839 13.7578C27.855 13.8769 27.7721 14.0297 27.7721 14.3326C27.7721 14.5595 27.8556 14.6541 29.7094 16.5263C30.7749 17.6025 31.6766 18.5627 31.7133 18.6603C31.9 19.1577 31.6658 19.7613 31.1899 20.0089C30.9529 20.1322 30.4741 20.131 30.2408 20.0065C30.1402 19.9528 27.8743 17.7099 25.2057 15.0224L20.3538 10.1361L20.697 9.78352C20.8858 9.58958 21.2322 9.25865 21.4667 9.04813L21.8931 8.66528L23.0048 9.77773L24.1166 10.8902H24.4046C24.6492 10.8902 24.7168 10.861 24.8546 10.6963C24.9635 10.5661 25.0167 10.4277 25.0167 10.2749C25.0167 10.0645 24.9344 9.96417 23.9209 8.93862C23.3181 8.32874 22.825 7.80828 22.825 7.782C22.825 7.75573 22.9361 7.58617 23.0718 7.40527C24.2649 5.81533 24.1054 3.54563 22.7028 2.15065C22.2726 1.72287 21.8001 1.42194 21.212 1.20109C20.6435 0.987607 19.5458 0.933733 18.9425 1.08975C18.379 1.23543 17.7168 1.57467 17.3282 1.91669L17.0012 2.20452L16.6742 1.91669C16.2902 1.57871 15.6235 1.23517 15.0822 1.0963C14.5989 0.972296 13.5824 0.973619 13.1187 1.09888ZM15.2618 2.49929C15.5331 2.63098 15.8745 2.88226 16.2211 3.20538C16.7005 3.65231 16.7856 3.707 17.0012 3.707C17.2168 3.707 17.3019 3.65231 17.7797 3.20689C18.1157 2.89367 18.4738 2.62871 18.7376 2.49803C19.1411 2.29816 19.1898 2.28927 19.8837 2.28927C20.5952 2.28927 20.6171 2.29356 21.0847 2.52613C22.8073 3.38275 23.1434 5.54816 21.776 6.97906C21.2189 7.56197 17.0499 11.5833 17.0027 11.5833C16.9552 11.5833 12.7021 7.481 12.1938 6.94491C10.7478 5.42006 11.3012 3.07596 13.2744 2.36766C13.5158 2.28102 13.7331 2.2596 14.2146 2.27491C14.7701 2.29261 14.8883 2.31794 15.2618 2.49929ZM12.9087 9.40515L13.651 10.1255L8.79782 15.0172C6.12858 17.7075 3.86225 19.9528 3.76162 20.0065C3.52836 20.131 3.04955 20.1322 2.81253 20.0089C2.33705 19.7615 2.10316 19.1597 2.28833 18.6603C2.34776 18.5001 12.0268 8.68481 12.1254 8.68481C12.1479 8.68481 12.5004 9.00894 12.9087 9.40515ZM16.7977 13.073C17.1195 13.2109 17.3066 13.0868 18.4352 11.9866L19.4623 10.9854L23.8061 15.3922L28.1499 19.7989L28.1332 25.1061L28.1165 30.4132L27.9647 30.5758L27.8128 30.7384H26.5401H25.2672L25.2663 27.2886C25.2653 23.5689 25.2519 23.3897 24.9283 22.7469C24.6953 22.2843 24.3221 21.8457 23.9309 21.5746C23.7359 21.4395 23.5765 21.3124 23.5765 21.2922C23.5765 21.2719 23.6358 21.0994 23.7081 20.9088C23.8735 20.4733 23.9283 19.7294 23.8301 19.254C23.6686 18.4723 23.0638 17.603 22.4129 17.2172C21.4269 16.6327 20.1347 16.6519 19.1781 17.2652C17.9872 18.0287 17.4522 19.6474 17.9684 20.9254L18.1149 21.288L17.9181 21.4268C17.8099 21.5031 17.5594 21.7198 17.3613 21.9084L17.0012 22.2512L16.6411 21.9084C16.4431 21.7198 16.1897 21.501 16.078 21.4222C15.8804 21.2828 15.8774 21.274 15.9687 21.0963C16.1461 20.7513 16.2645 20.0817 16.2254 19.6446C16.0635 17.8324 14.4968 16.5629 12.7329 16.8146C11.4977 16.9908 10.4296 18.0083 10.1723 19.254C10.0741 19.7294 10.129 20.4733 10.2943 20.9088C10.3667 21.0994 10.4259 21.2719 10.4259 21.2922C10.426 21.3124 10.2665 21.4395 10.0715 21.5746C9.68034 21.8457 9.30712 22.2843 9.07417 22.7469C8.75048 23.3897 8.73714 23.5689 8.73614 27.2886L8.7352 30.7384H7.46236H6.18958L6.03772 30.5758L5.88593 30.4132L5.86971 25.1097L5.85343 19.8061L10.2166 15.4156L14.5798 11.025L15.587 12.0054C16.1409 12.5446 16.6858 13.025 16.7977 13.073ZM26.1682 11.7057C25.9803 11.7855 25.7682 12.0775 25.7682 12.2566C25.7682 12.3402 25.8108 12.4915 25.8628 12.5927C26.1375 13.1274 26.9194 12.9701 27.0002 12.364C27.03 12.1413 27.0097 12.0777 26.8555 11.9071C26.6642 11.6958 26.3846 11.6138 26.1682 11.7057ZM13.9755 18.238C14.6011 18.5377 14.964 19.1377 14.9622 19.8691C14.9599 20.8309 14.2775 21.5734 13.3253 21.6503C12.8242 21.6908 12.4652 21.5886 12.0854 21.2971C11.2531 20.6584 11.1291 19.4579 11.8147 18.6743C12.3772 18.0313 13.1981 17.8655 13.9755 18.238ZM21.5875 18.2118C21.9771 18.3805 22.4079 18.8607 22.5466 19.2811C22.7828 19.9964 22.5228 20.8322 21.9205 21.2944C20.5589 22.3394 18.6157 21.0287 19.0904 19.3854C19.4107 18.2769 20.5264 17.7526 21.5875 18.2118ZM11.3974 22.3592C11.46 22.4613 12.0562 22.7472 12.3985 22.8394C13.1417 23.0394 14.1293 22.8919 14.7651 22.4861C15.0553 22.3008 15.0715 22.2978 15.2576 22.3947C15.4692 22.5048 15.9993 22.9754 15.9993 23.0532C15.9993 23.0801 15.8779 23.1738 15.7295 23.2612C14.8282 23.7927 14.3585 24.9716 14.6484 25.975L14.754 26.3405L14.3759 26.6848C13.9326 27.0886 13.6611 27.5999 13.5612 28.2192C13.525 28.4438 13.4952 29.1025 13.4949 29.683L13.4944 30.7384H11.739H9.98362L10.0013 27.2256L10.0189 23.7128L10.163 23.3977C10.3329 23.0265 10.6012 22.726 10.9862 22.4759C11.2917 22.2774 11.3389 22.264 11.3974 22.3592ZM19.2377 22.4867C20.1647 23.0796 21.5814 23.0625 22.4821 22.4475L22.7122 22.2904L22.9721 22.4451C23.3374 22.6624 23.6708 23.0287 23.8395 23.3977L23.9835 23.7128L24.0012 27.2256L24.0188 30.7384H22.2634H20.508L20.5075 29.683C20.5068 27.9327 20.3592 27.4175 19.6614 26.7291L19.2526 26.3258L19.3561 25.9676C19.4957 25.4846 19.4451 24.8107 19.2347 24.3482C19.0478 23.9373 18.6423 23.4791 18.2729 23.2612C18.1245 23.1738 18.0032 23.0823 18.0032 23.058C18.0032 22.9529 18.7949 22.2976 18.9246 22.2953C18.9321 22.2952 19.073 22.3813 19.2377 22.4867ZM17.283 24.1919C18.4893 24.5235 18.4781 26.1893 17.2674 26.5133C16.7555 26.6504 16.1548 26.3577 15.9312 25.8624C15.6245 25.1829 15.9808 24.3986 16.6881 24.1964C16.9809 24.1126 16.9943 24.1126 17.283 24.1919ZM16.6098 27.7696C17.1202 27.8522 17.6823 27.7616 18.1121 27.5274L18.4403 27.3486L18.683 27.5256C18.8203 27.6256 18.9907 27.8351 19.075 28.0075C19.2137 28.2908 19.2258 28.3986 19.2457 29.5255L19.2671 30.7384H17.0012H14.7353L14.7567 29.5255C14.7767 28.3986 14.7887 28.2908 14.9274 28.0075C15.0117 27.8351 15.1821 27.6256 15.3194 27.5256L15.5622 27.3486L15.8903 27.5274C16.0708 27.6258 16.3946 27.7347 16.6098 27.7696Z" fill="#63AFCD" stroke="#63AFCD"/>
</svg>
