<svg width="34" height="34" viewBox="0 0 34 34" fill="none" xmlns="http://www.w3.org/2000/svg">
<path fill-rule="evenodd" clip-rule="evenodd" d="M22.5027 0.129093C22.1869 0.295752 22.0252 0.640098 21.9384 1.33071C21.7631 2.72543 20.7391 3.74923 19.3441 3.92446C18.6391 4.01301 18.3077 4.17209 18.1389 4.50282C17.9676 4.83847 17.9676 5.10642 18.1389 5.44207C18.3077 5.77279 18.6391 5.93188 19.3441 6.02043C20.7391 6.19565 21.7631 7.21946 21.9384 8.61417C21.9736 8.89455 22.0585 9.24992 22.1271 9.4039C22.4467 10.1215 23.5266 10.1215 23.8461 9.4039C23.9147 9.24992 23.9996 8.89455 24.0348 8.61417C24.2101 7.21946 25.2341 6.19565 26.6292 6.02043C27.3341 5.93188 27.6655 5.77279 27.8343 5.44207C28.1006 4.9203 27.9177 4.33503 27.4191 4.11311C27.265 4.04456 26.9096 3.95967 26.6292 3.92446C25.9413 3.83811 25.3438 3.55155 24.8758 3.08366C24.4078 2.61583 24.1212 2.01841 24.0348 1.33071C23.9463 0.625949 23.7871 0.294557 23.4563 0.125838C23.1253 -0.0430131 22.827 -0.0419503 22.5027 0.129093ZM10.5436 2.12183C10.2278 2.28849 10.0661 2.63284 9.97929 3.32345C9.80402 4.71817 8.77998 5.74197 7.38495 5.9172C6.68003 6.00575 6.34856 6.16483 6.17981 6.49556C6.00853 6.8312 6.00853 7.09916 6.17981 7.4348C6.34856 7.76553 6.68003 7.92462 7.38495 8.01316C8.77998 8.18839 9.80402 9.21219 9.97929 10.6069C10.0145 10.8873 10.0994 11.2427 10.168 11.3966C10.4875 12.1143 11.5675 12.1143 11.887 11.3966C11.9556 11.2427 12.0405 10.8873 12.0757 10.6069C12.251 9.21219 13.275 8.18839 14.67 8.01316C15.375 7.92462 15.7064 7.76553 15.8752 7.4348C16.0465 7.09916 16.0465 6.8312 15.8752 6.49556C15.7064 6.16483 15.375 6.00575 14.67 5.9172C13.275 5.74197 12.251 4.71817 12.0757 3.32345C11.9872 2.61869 11.828 2.2873 11.4972 2.11858C11.1662 1.94973 10.8678 1.95079 10.5436 2.12183ZM23.4855 4.50807L23.9476 4.97364L23.4671 5.45409L22.9866 5.93447L22.5061 5.45409L22.0256 4.97364L22.4877 4.50807C22.7418 4.252 22.9663 4.0425 22.9866 4.0425C23.0069 4.0425 23.2314 4.252 23.4855 4.50807ZM11.5264 6.50081L11.9885 6.96638L11.508 7.44683L11.0275 7.92721L10.547 7.44683L10.0665 6.96638L10.5286 6.50081C10.7827 6.24474 11.0072 6.03524 11.0275 6.03524C11.0478 6.03524 11.2723 6.24474 11.5264 6.50081ZM6.60595 14.0329C6.15715 14.229 6.15589 14.2324 3.96166 20.8628C0.386549 31.6659 -0.00152363 32.8562 4.47432e-06 33.0153C0.00299425 33.3312 0.242907 33.7207 0.522418 33.8632L0.790502 34H17.0071H33.2236L33.4923 33.863C33.8283 33.6915 34.0515 33.2498 33.9897 32.8784C33.9192 32.4547 27.9775 14.5799 27.8508 14.4103C27.7837 14.3204 27.6463 14.1853 27.5454 14.1099C27.3621 13.9731 27.3499 13.973 17.0853 13.9586C8.64299 13.9469 6.77245 13.9601 6.60595 14.0329ZM16.0105 18.9548V21.9771H10.8569H5.70337L5.75028 21.8277C5.9496 21.1928 7.65975 16.0214 7.68333 15.9823C7.69981 15.955 9.58018 15.9325 11.8619 15.9325H16.0105V18.9548ZM27.3153 18.9216C27.853 20.5474 28.2949 21.8999 28.2973 21.9273C28.2998 21.9548 25.9847 21.9771 23.1527 21.9771H18.0036V18.9543V15.9315L22.1707 15.9486L26.3378 15.9657L27.3153 18.9216ZM16.0105 27.9886V32.0073H9.19331C3.76759 32.0073 2.38239 31.9903 2.40664 31.9242C2.42345 31.8786 2.99623 30.1428 3.67949 28.067C4.36282 25.9912 4.94948 24.2201 4.98323 24.1314L5.04462 23.9699H10.5275H16.0105V27.9886ZM30.2771 27.8889C30.982 30.0261 31.5754 31.8271 31.5957 31.891C31.6308 32.0012 31.278 32.0073 24.8181 32.0073H18.0036V27.9882V23.9691L23.4995 23.9861L28.9955 24.0031L30.2771 27.8889Z" fill="#63AFCD"/>
</svg>
