<svg width="41" height="32" viewBox="0 0 41 32" fill="none" xmlns="http://www.w3.org/2000/svg">
<path fill-rule="evenodd" clip-rule="evenodd" d="M3.63652 0.140444C2.2997 0.533139 1.14624 1.45971 0.566989 2.60599C-0.0479754 3.8231 -0.0147449 3.03946 0.0112789 15.7005C0.0372227 28.3511 -0.0143446 27.2655 0.6232 28.5894C1.33553 30.0686 2.64273 31.2091 4.27711 31.7773L4.9177 32H20.492H36.0663L36.7678 31.7513C38.3947 31.1748 39.6461 30.0735 40.3608 28.5894C40.9423 27.382 40.9397 27.4033 40.9715 23.4836L41 19.9641L40.7892 19.5375C40.0447 18.0301 37.7879 18.6158 37.7879 20.3164C37.7879 20.5259 37.766 20.6974 37.7393 20.6974C37.7127 20.6974 37.4695 20.6393 37.1988 20.5682C36.5608 20.4006 35.2488 20.4022 34.705 20.5712C34.4848 20.6397 34.277 20.6961 34.2432 20.6965C34.2093 20.697 34.1913 17.0301 34.2031 12.5477L34.2246 4.39791L34.4248 4.04447C34.735 3.49687 35.1956 3.21951 35.8565 3.18254C36.4639 3.14852 36.915 3.31516 37.2856 3.71063C37.764 4.22103 37.7443 4.02933 37.7879 8.61484L37.8279 12.8317L38.0692 13.1755C38.7174 14.0992 40.0613 14.0991 40.7095 13.1755L40.9508 12.8316L40.9729 8.67893C40.9978 3.96944 40.9852 3.83191 40.4193 2.6953C39.8011 1.45345 38.5547 0.45755 37.1905 0.115538C36.5663 -0.040953 35.341 -0.0380183 34.7166 0.121566C33.5955 0.408057 32.3397 1.32694 31.7284 2.30808L31.4393 2.77192L20.4606 2.7697L9.48189 2.7674L9.22845 2.35226C8.63943 1.38738 7.71202 0.637123 6.63744 0.256087C5.84727 -0.0240587 4.38785 -0.0802937 3.63652 0.140444ZM5.66094 3.29168C6.03857 3.44794 6.36599 3.75505 6.58659 4.15996L6.75939 4.47722L6.78085 12.5873C6.7927 17.0479 6.77989 20.6974 6.75242 20.6974C6.72496 20.6974 6.48105 20.6393 6.21041 20.5682C5.57238 20.4006 4.26038 20.4022 3.7166 20.5712C3.4964 20.6397 3.28925 20.6961 3.25618 20.6965C3.16433 20.6979 3.18275 4.6867 3.27499 4.35825C3.38397 3.97023 3.80524 3.49235 4.19135 3.31865C4.59196 3.13836 5.26081 3.12615 5.66094 3.29168ZM30.9816 15.768C30.9816 22.9007 31.0066 25.6652 31.0727 25.861C31.3034 26.5435 31.8784 26.9634 32.5824 26.9634C33.1165 26.9634 33.4393 26.8206 33.7996 26.4251C34.0899 26.1064 34.1283 25.994 34.2189 25.1973C34.3769 23.8084 35.8542 23.1371 37.0122 23.9281C37.5184 24.2737 37.7342 24.7319 37.7734 25.5444C37.8466 27.0611 37.1295 28.2185 35.8146 28.7058C35.3831 28.8657 35.2629 28.867 20.492 28.867C5.72108 28.867 5.60089 28.8657 5.16937 28.7058C3.91694 28.2417 3.19548 27.1446 3.1966 25.7059C3.19716 24.9402 3.29998 24.5737 3.6133 24.2202C4.65634 23.0434 6.54856 23.6504 6.76131 25.23C6.78686 25.4199 6.82593 25.6935 6.84819 25.8379C6.89704 26.1557 7.37924 26.7079 7.73773 26.8566C8.11736 27.014 8.7541 26.9905 9.12012 26.8055C9.47012 26.6286 9.77464 26.265 9.91124 25.861C9.97738 25.6652 10.0024 22.9007 10.0024 15.768V5.94458H20.492H30.9816V15.768ZM15.3382 8.27743C14.748 8.49389 14.2519 9.15562 14.248 9.73193C14.2464 9.96917 14.2255 9.98987 13.986 9.99146C13.3652 9.99558 12.6523 10.5626 12.4825 11.1873C12.2274 12.1255 12.9985 13.1624 13.9513 13.1624H14.2463V16.9585V20.7546L13.8335 20.8031C12.8849 20.9144 12.2366 21.847 12.4815 22.7481C12.6523 23.3763 13.3636 23.9435 13.986 23.9476C14.2255 23.9492 14.2464 23.9699 14.248 24.2072C14.2522 24.8221 14.8246 25.5283 15.4553 25.6965C16.4025 25.9491 17.4492 25.1854 17.4492 24.2416V23.9494H20.492H23.5348V24.2416C23.5348 25.1854 24.5815 25.9491 25.5287 25.6965C26.1593 25.5283 26.7318 24.8221 26.736 24.2072C26.7376 23.9699 26.7585 23.9492 26.998 23.9476C27.6204 23.9435 28.3317 23.3763 28.5025 22.7481C28.7641 21.7854 27.978 20.7767 26.966 20.7767H26.7377L26.736 19.4878C26.734 18.0119 26.6566 17.7316 26.1335 17.3045C25.3277 16.6466 24.132 16.9286 23.6866 17.8817C23.5618 18.1487 23.538 18.4029 23.5365 19.4878L23.5348 20.7767H20.492H17.4492V16.9696V13.1624H22.3884C27.2748 13.1624 27.3315 13.1605 27.6824 12.9923C28.3168 12.6881 28.6874 11.8715 28.5015 11.1873C28.3317 10.5626 27.6188 9.99558 26.998 9.99146C26.7585 9.98987 26.7376 9.96917 26.736 9.73193C26.7318 9.11541 26.1592 8.41084 25.5249 8.24166C24.6139 7.99863 23.643 8.66481 23.5527 9.59456L23.5144 9.98971H20.4929H17.4715L17.4226 9.58084C17.3053 8.59945 16.2536 7.94184 15.3382 8.27743Z" fill="#63AFCD"/>
</svg>
