<svg width="65" height="65" viewBox="0 0 65 65" fill="none" xmlns="http://www.w3.org/2000/svg">
<path fill-rule="evenodd" clip-rule="evenodd" d="M8.83004 0.214378C8.63216 0.352974 7.73592 2.74408 5.49198 9.12002L2.4244 17.8361L1.53392 17.8385C0.764798 17.8404 0.599415 17.8846 0.321724 18.1623C0.0085181 18.4752 0 18.5364 0 20.4607C0 22.3849 0.0085181 22.4461 0.321724 22.759C0.63873 23.076 0.676079 23.0806 2.94269 23.0806H5.24194V41.4203V59.7601H2.94269C0.676079 59.7601 0.63873 59.7647 0.321724 60.0817C0.0085181 60.3946 0 60.4558 0 62.38C0 64.3043 0.0085181 64.3654 0.321724 64.6784L0.643317 65H32.5H64.3567L64.6783 64.6784C64.9915 64.3654 65 64.3043 65 62.38C65 60.4558 64.9915 60.3946 64.6783 60.0817C64.3613 59.7647 64.3239 59.7601 62.0573 59.7601H59.7581V41.4203V23.0806H62.0573C64.3239 23.0806 64.3613 23.076 64.6783 22.759C64.9915 22.4461 65 22.3849 65 20.4607C65 18.5364 64.9915 18.4752 64.6783 18.1623C64.4006 17.8846 64.2352 17.8404 63.4661 17.8385L62.5756 17.8361L59.508 9.12002C57.2641 2.74408 56.3678 0.352974 56.17 0.214378C55.7616 -0.0714595 9.23839 -0.0714595 8.83004 0.214378ZM57.6086 9.98317L60.3735 17.8407H32.5H4.62653L7.39139 9.98317L10.1562 2.12551H32.5H54.8437L57.6086 9.98317ZM62.9032 20.4607V20.9846H32.5H2.09677V20.4607V19.9367H32.5H62.9032V20.4607ZM57.6613 41.4203V59.7601H49.7984H41.9355V58.5097C41.9355 57.3567 41.9105 57.2342 41.6138 56.9377C41.3497 56.6736 41.1623 56.6161 40.5654 56.6161H39.8387V48.4883V40.3604L39.517 40.039L39.1954 39.7174H32.5H25.8046L25.483 40.039L25.1613 40.3604V48.4883V56.6161H24.4346C23.8377 56.6161 23.6503 56.6736 23.3862 56.9377C23.0895 57.2342 23.0645 57.3567 23.0645 58.5097V59.7601H15.2016H7.33871V41.4203V23.0806H32.5H57.6613V41.4203ZM8.70882 25.4982L8.3871 25.8197V31.4645V37.1093L8.70882 37.4308L9.03041 37.7524H15.7258H22.4212L22.7428 37.4308L23.0645 37.1093V31.4645V25.8197L22.7428 25.4982L22.4212 25.1766H15.7258H9.03041L8.70882 25.4982ZM25.483 25.4982L25.1613 25.8197V31.4645V37.1093L25.483 37.4308L25.8046 37.7524H32.5H39.1954L39.517 37.4308L39.8387 37.1093V31.4645V25.8197L39.517 25.4982L39.1954 25.1766H32.5H25.8046L25.483 25.4982ZM42.2572 25.4982L41.9355 25.8197V31.4645V37.1093L42.2572 37.4308L42.5788 37.7524H49.2742H55.9696L56.2912 37.4308L56.6129 37.1093V31.4645V25.8197L56.2912 25.4982L55.9696 25.1766H49.2742H42.5788L42.2572 25.4982ZM20.9677 31.4645V35.6564H15.7258H10.4839V31.4645V27.2726H15.7258H20.9677V31.4645ZM37.7419 31.4645V35.6564H32.5H27.2581V31.4645V27.2726H32.5H37.7419V31.4645ZM54.5161 31.4645V35.6564H49.2742H44.0323V31.4645V27.2726H49.2742H54.5161V31.4645ZM8.70882 40.17L8.3871 40.4914V46.1363V51.7811L8.70882 52.1026L9.03041 52.4242H15.7258H22.4212L22.7428 52.1026L23.0645 51.7811V46.1363V40.4914L22.7428 40.17L22.4212 39.8484H15.7258H9.03041L8.70882 40.17ZM42.2572 40.17L41.9355 40.4914V46.1363V51.7811L42.2572 52.1026L42.5788 52.4242H49.2742H55.9696L56.2912 52.1026L56.6129 51.7811V46.1363V40.4914L56.2912 40.17L55.9696 39.8484H49.2742H42.5788L42.2572 40.17ZM31.4516 49.2147V56.6161H29.3548H27.2581V49.2147V41.8133H29.3548H31.4516V49.2147ZM37.7419 49.2147V56.6161H35.6452H33.5484V49.2147V41.8133H35.6452H37.7419V49.2147ZM20.9677 46.1363V50.3282H15.7258H10.4839V46.1363V41.9443H15.7258H20.9677V46.1363ZM54.5161 46.1363V50.3282H49.2742H44.0323V46.1363V41.9443H49.2742H54.5161V46.1363ZM39.8387 59.2361V59.7601H32.5H25.1613V59.2361V58.7121H32.5H39.8387V59.2361ZM62.9032 62.38V62.904H32.5H2.09677V62.38V61.856H32.5H62.9032V62.38Z" fill="#63AFCD"/>
</svg>
