<svg width="24" height="22" viewBox="0 0 24 22" fill="none" xmlns="http://www.w3.org/2000/svg">
<path fill-rule="evenodd" clip-rule="evenodd" d="M4.29774 0.0331606C2.14058 0.243452 0.372767 1.89047 0.0407533 3.99914C0.00620506 4.21872 -0.00661283 5.81996 0.00320087 8.68505C0.0180716 13.0098 0.0188727 13.0399 0.129477 13.4309C0.391743 14.358 1.03449 15.3242 1.77678 15.9072C2.23371 16.2661 3.00018 16.652 3.57173 16.811L3.97229 16.9224L11.1161 16.9358L18.2599 16.9492L18.2761 17.3785C18.3262 18.71 18.0835 19.7528 17.522 20.6179C17.3145 20.9376 17.2745 21.2035 17.3896 21.4993C17.5562 21.928 18.0434 22.0976 18.6695 21.9449C20.1176 21.5917 21.8707 19.9652 22.8179 18.0963C23.364 17.0189 23.6932 15.9282 23.9098 14.4786C23.9923 13.9265 24.0002 13.4424 24 8.95554L23.9997 4.0376L23.8682 3.56985C23.7959 3.31254 23.6672 2.95147 23.5822 2.76739C22.9771 1.45666 21.7008 0.443317 20.22 0.0979791C19.8695 0.0162429 19.3403 0.00980035 12.2839 0.00104641C8.12559 -0.00411743 4.53182 0.0103413 4.29774 0.0331606ZM20.0197 1.48307C20.9655 1.70138 21.814 2.37479 22.2479 3.25146C22.6045 3.97184 22.5899 3.75899 22.6114 8.53751C22.6311 12.9064 22.6082 13.7474 22.4429 14.7095C22.1446 16.4473 21.5207 17.8522 20.5322 19.0127C20.2181 19.3815 19.4874 20.0455 19.3957 20.0455C19.3772 20.0455 19.377 19.9991 19.3953 19.9425C19.6237 19.2357 19.7405 17.9665 19.6709 16.948C19.6146 16.1243 19.5395 15.8722 19.3005 15.7048L19.1435 15.5948L11.633 15.5697C4.5151 15.546 4.10808 15.5399 3.84712 15.4543C2.89864 15.143 2.17819 14.5497 1.77537 13.7484C1.37702 12.9559 1.38863 13.126 1.40471 8.32417L1.41888 4.08678L1.53589 3.74252C1.72671 3.18109 1.97395 2.79375 2.41522 2.36476C2.87656 1.91629 3.3327 1.65382 3.908 1.50579C4.25909 1.4154 4.56026 1.41186 11.9835 1.40994C18.7284 1.40822 19.735 1.41736 20.0197 1.48307ZM5.87279 6.17016C5.53657 6.37155 5.43333 6.72186 5.60988 7.06213C5.83103 7.48827 5.29714 7.45542 11.9985 7.45547C16.9882 7.45557 17.943 7.4447 18.0569 7.38647C18.571 7.12375 18.6037 6.42639 18.1139 6.16839C17.9515 6.08282 17.6601 6.07854 11.9843 6.07874C6.2681 6.07889 6.01895 6.08263 5.87279 6.17016ZM5.89918 9.21929C5.67291 9.33816 5.53282 9.57673 5.53282 9.84318C5.53282 10.0901 5.64112 10.2743 5.86513 10.4085C6.0214 10.5021 6.1661 10.5043 12.0026 10.5045C17.9084 10.5047 17.982 10.5035 18.1434 10.4055C18.598 10.1296 18.5541 9.45471 18.066 9.21383C17.903 9.13342 17.5084 9.12782 11.9827 9.12777C6.31411 9.12767 6.06656 9.13141 5.89918 9.21929Z" fill="#63AFCD"/>
</svg>
